solid Pantalla
facet normal -0.27546663044922454 -0.9613106339454458 -2.392395464921655e-05
outer loop
vertex 274.1481348729421 126.02718732293116 1.9999999999999998
vertex 273.40778167486997 126.34900045564243 0.0008459351448916837
vertex 274.1481756128999 126.02722540133266 0.0008459351448916837
endloop
endfacet
facet normal -0.5148842653413044 -0.8572596996153359 -2.6821065571900177e-05
outer loop
vertex 273.40778167486997 126.34900045564243 0.0008459351448916837
vertex 274.1481348729421 126.02718732293116 1.9999999999999998
vertex 273.40774093491217 126.34896237724092 1.9999999999999998
endloop
endfacet
facet normal -0.514885357023541 -0.8572590439320957 -2.682107532988675e-05
outer loop
vertex 273.40774093491217 126.34896237724092 1.9999999999999998
vertex 272.7758975607932 126.85143934289638 0.0008459351448916837
vertex 273.40778167486997 126.34900045564243 0.0008459351448916837
endloop
endfacet
facet normal -0.7192155621329849 -0.6947869993083209 -2.7890391703902785e-05
outer loop
vertex 272.7758975607932 126.85143934289638 0.0008459351448916837
vertex 273.40774093491217 126.34896237724092 1.9999999999999998
vertex 272.77585682083543 126.85140126449487 1.9999999999999998
endloop
endfacet
facet normal -0.9935393938187238 -0.11348776360287678 2.1041400833578193e-05
outer loop
vertex 271.90800453975856 129.0534179883925 1.9999999999999998
vertex 271.9995768773949 128.25136858049723 0.0008459351448916837
vertex 271.99953613743713 128.2513305020957 1.9999999999999998
endloop
endfacet
facet normal -0.9702397346631949 -0.24214635507185162 -2.471845811552991e-06
outer loop
vertex 271.9995768773949 128.25136858049723 0.0008459351448916837
vertex 271.90800453975856 129.0534179883925 1.9999999999999998
vertex 271.9078623477515 129.05352676864456 0.0008434057155703389
endloop
endfacet
facet normal 0.48496402178472997 -0.8745341031249066 -6.774588904644599e-06
outer loop
vertex 276.4997363951536 126.29554438884824 1.9999999999999998
vertex 275.7487102378619 125.99957421583846 0.0008459351448916837
vertex 276.4997771351114 126.29558246724976 0.0008459351448916837
endloop
endfacet
facet normal 0.24209733946378856 -0.9702519662649662 -1.3547034233376053e-05
outer loop
vertex 275.7487102378619 125.99957421583846 0.0008459351448916837
vertex 276.4997363951536 126.29554438884824 1.9999999999999998
vertex 275.74866949790413 125.99953613743696 1.9999999999999998
endloop
endfacet
facet normal 0.24209340766721382 -0.9702529473186626 -1.3547133044261313e-05
outer loop
vertex 275.74866949790413 125.99953613743696 1.9999999999999998
vertex 274.94662275156514 125.90804261815988 0.0008459351448916837
vertex 275.7487102378619 125.99957421583846 0.0008459351448916837
endloop
endfacet
facet normal -0.017271975090956498 -0.9998508281239943 -1.939639445566967e-05
outer loop
vertex 274.94662275156514 125.90804261815988 0.0008459351448916837
vertex 275.74866949790413 125.99953613743696 1.9999999999999998
vertex 274.94658201160735 125.90800453975838 1.9999999999999998
endloop
endfacet
facet normal 0.5949665010287231 -0.8037504977562977 -3.1846590267352127e-06
outer loop
vertex 277.11680019660423 126.75231834032377 1.9999999999999998
vertex 276.4997771351114 126.29558246724976 0.0008459351448916837
vertex 277.116840936562 126.75235641872528 0.0008459351448916837
endloop
endfacet
facet normal 0.484967954533484 -0.8745319222473903 -6.7744672210023705e-06
outer loop
vertex 276.4997771351114 126.29558246724976 0.0008459351448916837
vertex 277.11680019660423 126.75231834032377 1.9999999999999998
vertex 276.4997363951536 126.29554438884824 1.9999999999999998
endloop
endfacet
facet normal -0.017275306151009587 -0.9998507705758727 -1.9396461241870756e-05
outer loop
vertex 274.94658201160735 125.90800453975838 1.9999999999999998
vertex 274.1481756128999 126.02722540133266 0.0008459351448916837
vertex 274.94662275156514 125.90804261815988 0.0008459351448916837
endloop
endfacet
facet normal -0.2754643389431689 -0.9613112905808655 -2.392392045863867e-05
outer loop
vertex 274.1481756128999 126.02722540133266 0.0008459351448916837
vertex 274.94658201160735 125.90800453975838 1.9999999999999998
vertex 274.1481348729421 126.02718732293116 1.9999999999999998
endloop
endfacet
facet normal -0.7071067811865527 -0.7071067811865424 0.0
outer loop
vertex 275.7778174593052 139.77781745930503 1.9999999999999998
vertex 275.55 139.9526279441627 0.0001707886678121301
vertex 275.7778174593052 139.77781745930503 0.0001707886678121301
endloop
endfacet
facet normal -0.5000000000000152 -0.86602540378443 0.0
outer loop
vertex 275.55 139.9526279441627 0.0001707886678121301
vertex 275.7778174593052 139.77781745930503 1.9999999999999998
vertex 275.55 139.9526279441627 1.9999999999999998
endloop
endfacet
facet normal -0.5000000000000152 -0.86602540378443 0.0
outer loop
vertex 275.55 139.9526279441627 1.9999999999999998
vertex 275.2847009496128 140.0625184089178 0.0001707886678121301
vertex 275.55 139.9526279441627 0.0001707886678121301
endloop
endfacet
facet normal -0.25881904510250386 -0.9659258262890729 0.0
outer loop
vertex 275.2847009496128 140.0625184089178 0.0001707886678121301
vertex 275.55 139.9526279441627 1.9999999999999998
vertex 275.2847009496128 140.0625184089178 1.9999999999999998
endloop
endfacet
facet normal 0.8660254037844637 -0.49999999999995676 0.0
outer loop
vertex 274.0473720558371 139.5499999999998 0.0001707886678121301
vertex 273.937481591082 139.2847009496126 1.9999999999999998
vertex 273.937481591082 139.2847009496126 0.0001707886678121301
endloop
endfacet
facet normal 0.9659258262890609 -0.25881904510254905 0.0
outer loop
vertex 273.937481591082 139.2847009496126 1.9999999999999998
vertex 274.0473720558371 139.5499999999998 0.0001707886678121301
vertex 274.0473720558371 139.5499999999998 1.9999999999999998
endloop
endfacet
facet normal -0.9659258262890609 0.25881904510254905 0.0
outer loop
vertex 276.0625184089179 138.71529905038707 1.9999999999999998
vertex 275.9526279441629 138.44999999999985 0.0001707886678121301
vertex 275.9526279441629 138.44999999999985 1.9999999999999998
endloop
endfacet
facet normal -0.8660254037844637 0.49999999999995676 0.0
outer loop
vertex 275.9526279441629 138.44999999999985 0.0001707886678121301
vertex 276.0625184089179 138.71529905038707 1.9999999999999998
vertex 276.0625184089179 138.71529905038707 0.0001707886678121301
endloop
endfacet
facet normal -0.7071067811865527 -0.7071067811865424 0.0
outer loop
vertex 275.7778174593052 139.77781745930503 1.9999999999999998
vertex 275.9526279441629 139.54999999999984 0.0001707886678121301
vertex 275.9526279441629 139.54999999999984 1.9999999999999998
endloop
endfacet
facet normal -0.8660254037844594 -0.49999999999996436 0.0
outer loop
vertex 275.9526279441629 139.54999999999984 0.0001707886678121301
vertex 275.7778174593052 139.77781745930503 1.9999999999999998
vertex 275.7778174593052 139.77781745930503 0.0001707886678121301
endloop
endfacet
facet normal 0.25881904510250386 0.9659258262890729 0.0
outer loop
vertex 274.7152990503872 137.93748159108185 1.9999999999999998
vertex 275.0 137.89999999999984 0.0001707886678121301
vertex 274.7152990503872 137.93748159108185 0.0001707886678121301
endloop
endfacet
facet normal 0.0 1.0 0.0
outer loop
vertex 275.0 137.89999999999984 0.0001707886678121301
vertex 274.7152990503872 137.93748159108185 1.9999999999999998
vertex 275.0 137.89999999999984 1.9999999999999998
endloop
endfacet
facet normal 0.25881904510250386 -0.9659258262890729 0.0
outer loop
vertex 274.7152990503872 140.0625184089178 1.9999999999999998
vertex 274.45 139.9526279441627 0.0001707886678121301
vertex 274.7152990503872 140.0625184089178 0.0001707886678121301
endloop
endfacet
facet normal 0.5000000000000152 -0.86602540378443 0.0
outer loop
vertex 274.45 139.9526279441627 0.0001707886678121301
vertex 274.7152990503872 140.0625184089178 1.9999999999999998
vertex 274.45 139.9526279441627 1.9999999999999998
endloop
endfacet
facet normal 0.0 1.0 0.0
outer loop
vertex 275.0 137.89999999999984 1.9999999999999998
vertex 275.2847009496128 137.93748159108185 0.0001707886678121301
vertex 275.0 137.89999999999984 0.0001707886678121301
endloop
endfacet
facet normal -0.25881904510250386 0.9659258262890729 0.0
outer loop
vertex 275.2847009496128 137.93748159108185 0.0001707886678121301
vertex 275.0 137.89999999999984 1.9999999999999998
vertex 275.2847009496128 137.93748159108185 1.9999999999999998
endloop
endfacet
facet normal 0.5000000000000152 0.86602540378443 0.0
outer loop
vertex 274.45 138.04737205583695 1.9999999999999998
vertex 274.7152990503872 137.93748159108185 0.0001707886678121301
vertex 274.45 138.04737205583695 0.0001707886678121301
endloop
endfacet
facet normal 0.25881904510250386 0.9659258262890729 0.0
outer loop
vertex 274.7152990503872 137.93748159108185 0.0001707886678121301
vertex 274.45 138.04737205583695 1.9999999999999998
vertex 274.7152990503872 137.93748159108185 1.9999999999999998
endloop
endfacet
facet normal -0.5000000000000152 0.86602540378443 0.0
outer loop
vertex 275.55 138.04737205583695 1.9999999999999998
vertex 275.7778174593052 138.22218254069463 0.0001707886678121301
vertex 275.55 138.04737205583695 0.0001707886678121301
endloop
endfacet
facet normal -0.7071067811865697 0.7071067811865256 0.0
outer loop
vertex 275.7778174593052 138.22218254069463 0.0001707886678121301
vertex 275.55 138.04737205583695 1.9999999999999998
vertex 275.7778174593052 138.22218254069463 1.9999999999999998
endloop
endfacet
facet normal -0.9999968741700103 -0.0025000782758668404 3.547989765094513e-05
outer loop
vertex 271.8831998033957 138.94658201160718 1.9999999999999998
vertex 271.9078623477515 129.05352676864456 0.0008434057155703389
vertex 271.90800453975856 129.0534179883925 1.9999999999999998
endloop
endfacet
facet normal -0.9999968741700103 -0.0025000782758668404 3.547989765094513e-05
outer loop
vertex 271.9078623477515 129.05352676864456 0.0008434057155703389
vertex 271.8831998033957 138.94658201160718 1.9999999999999998
vertex 271.8831998033957 138.94658201160718 0.0
endloop
endfacet
facet normal 0.8660254037844594 0.49999999999996436 0.0
outer loop
vertex 274.0473720558371 138.44999999999982 0.0001707886678121301
vertex 274.2221825406948 138.22218254069463 1.9999999999999998
vertex 274.2221825406948 138.22218254069463 0.0001707886678121301
endloop
endfacet
facet normal 0.7071067811865527 0.7071067811865424 0.0
outer loop
vertex 274.2221825406948 138.22218254069463 1.9999999999999998
vertex 274.0473720558371 138.44999999999982 0.0001707886678121301
vertex 274.0473720558371 138.44999999999982 1.9999999999999998
endloop
endfacet
facet normal 0.0 -1.0 0.0
outer loop
vertex 275.0 140.09999999999982 1.9999999999999998
vertex 274.7152990503872 140.0625184089178 0.0001707886678121301
vertex 275.0 140.09999999999982 0.0001707886678121301
endloop
endfacet
facet normal 0.25881904510250386 -0.9659258262890729 0.0
outer loop
vertex 274.7152990503872 140.0625184089178 0.0001707886678121301
vertex 275.0 140.09999999999982 1.9999999999999998
vertex 274.7152990503872 140.0625184089178 1.9999999999999998
endloop
endfacet
facet normal -0.9659258262890648 -0.25881904510253445 0.0
outer loop
vertex 276.0625184089179 139.2847009496126 1.9999999999999998
vertex 276.1 138.99999999999983 0.0001707886678121301
vertex 276.1 138.99999999999983 1.9999999999999998
endloop
endfacet
facet normal -1.0 0.0 0.0
outer loop
vertex 276.1 138.99999999999983 0.0001707886678121301
vertex 276.0625184089179 139.2847009496126 1.9999999999999998
vertex 276.0625184089179 139.2847009496126 0.0001707886678121301
endloop
endfacet
facet normal -0.25881904510250386 -0.9659258262890729 0.0
outer loop
vertex 275.2847009496128 140.0625184089178 1.9999999999999998
vertex 275.0 140.09999999999982 0.0001707886678121301
vertex 275.2847009496128 140.0625184089178 0.0001707886678121301
endloop
endfacet
facet normal 0.0 -1.0 0.0
outer loop
vertex 275.0 140.09999999999982 0.0001707886678121301
vertex 275.2847009496128 140.0625184089178 1.9999999999999998
vertex 275.0 140.09999999999982 1.9999999999999998
endloop
endfacet
facet normal -0.8745327393864999 -0.4849664802942091 -2.7059032702237226e-05
outer loop
vertex 272.2955443888484 127.50026360484623 1.9999999999999998
vertex 272.7758975607932 126.85143934289638 0.0008459351448916837
vertex 272.77585682083543 126.85140126449487 1.9999999999999998
endloop
endfacet
facet normal -0.7192155621329849 -0.6947869993083209 -2.7890391703902785e-05
outer loop
vertex 272.7758975607932 126.85143934289638 0.0008459351448916837
vertex 272.2955443888484 127.50026360484623 1.9999999999999998
vertex 272.2955851288062 127.50030168324774 0.0008459351448916837
endloop
endfacet
facet normal -0.9702391579894614 -0.24214866569483554 -2.472274613068752e-06
outer loop
vertex 271.99953613743713 128.2513305020957 1.9999999999999998
vertex 272.2955851288062 127.50030168324774 0.0008459351448916837
vertex 272.2955443888484 127.50026360484623 1.9999999999999998
endloop
endfacet
facet normal -0.8745332853933795 -0.4849654956869317 -2.7059025075024146e-05
outer loop
vertex 272.2955851288062 127.50030168324774 0.0008459351448916837
vertex 271.99953613743713 128.2513305020957 1.9999999999999998
vertex 271.9995768773949 128.25136858049723 0.0008459351448916837
endloop
endfacet
facet normal -0.017136210651638364 0.9998531643618991 0.0
outer loop
vertex 274.9465820116074 142.11680019660415 1.9999999999999998
vertex 275.7550894360836 142.0244233980298 0.0
vertex 274.9465820116074 142.11680019660415 0.0
endloop
endfacet
facet normal 0.24222873280970614 0.9702191716315464 0.0
outer loop
vertex 275.7550894360836 142.0244233980298 0.0
vertex 274.9465820116074 142.11680019660415 1.9999999999999998
vertex 275.7550894360836 142.0244233980298 1.9999999999999998
endloop
endfacet
facet normal -0.27533334967609546 0.9613488162764549 0.0
outer loop
vertex 274.1417149347627 141.99677221253572 1.9999999999999998
vertex 274.9465820116074 142.11680019660415 0.0
vertex 274.1417149347627 141.99677221253572 0.0
endloop
endfacet
facet normal -0.017136210651638364 0.9998531643618991 0.0
outer loop
vertex 274.9465820116074 142.11680019660415 0.0
vertex 274.1417149347627 141.99677221253572 1.9999999999999998
vertex 274.9465820116074 142.11680019660415 1.9999999999999998
endloop
endfacet
facet normal -0.7191200834667524 0.6948858219555003 0.0
outer loop
vertex 272.7583172235478 141.16613833279246 1.9999999999999998
vertex 272.2740628570241 140.51213876333497 0.0
vertex 272.2740628570241 140.51213876333497 1.9999999999999998
endloop
endfacet
facet normal -0.874466345717482 0.4850861884320281 0.0
outer loop
vertex 272.2740628570241 140.51213876333497 0.0
vertex 272.7583172235478 141.16613833279246 1.9999999999999998
vertex 272.7583172235478 141.16613833279246 0.0
endloop
endfacet
facet normal -0.5147669759299491 0.8573301350657957 0.0
outer loop
vertex 273.39533856673086 141.67251915458314 1.9999999999999998
vertex 274.1417149347627 141.99677221253572 0.0
vertex 273.39533856673086 141.67251915458314 0.0
endloop
endfacet
facet normal -0.27533334967609546 0.9613488162764549 0.0
outer loop
vertex 274.1417149347627 141.99677221253572 0.0
vertex 273.39533856673086 141.67251915458314 1.9999999999999998
vertex 274.1417149347627 141.99677221253572 1.9999999999999998
endloop
endfacet
facet normal 0.24222873280970614 0.9702191716315464 0.0
outer loop
vertex 275.7550894360836 142.0244233980298 1.9999999999999998
vertex 276.51213876333503 141.7259371429758 0.0
vertex 275.7550894360836 142.0244233980298 0.0
endloop
endfacet
facet normal 0.4850861884319649 0.8744663457175172 0.0
outer loop
vertex 276.51213876333503 141.7259371429758 0.0
vertex 275.7550894360836 142.0244233980298 1.9999999999999998
vertex 276.51213876333503 141.7259371429758 1.9999999999999998
endloop
endfacet
facet normal 0.4850861884319649 0.8744663457175172 0.0
outer loop
vertex 276.51213876333503 141.7259371429758 1.9999999999999998
vertex 277.11680019660423 141.27821522846148 0.0
vertex 276.51213876333503 141.7259371429758 0.0
endloop
endfacet
facet normal 0.5950769711753817 0.803668711831395 0.0
outer loop
vertex 277.11680019660423 141.27821522846148 0.0
vertex 276.51213876333503 141.7259371429758 1.9999999999999998
vertex 277.11680019660423 141.27821522846148 1.9999999999999998
endloop
endfacet
facet normal 0.0 0.0 1.0
outer loop
vertex 274.1481348729421 126.02718732293116 1.9999999999999998
vertex 273.9 128.99999999999983 1.9999999999999998
vertex 273.40774093491217 126.34896237724092 1.9999999999999998
endloop
endfacet
facet normal 0.0 0.0 1.0
outer loop
vertex 273.9 128.99999999999983 1.9999999999999998
vertex 274.1481348729421 126.02718732293116 1.9999999999999998
vertex 273.93748159108196 128.71529905038705 1.9999999999999998
endloop
endfacet
facet normal 0.0 0.0 1.0
outer loop
vertex 273.93748159108196 128.71529905038705 1.9999999999999998
vertex 274.1481348729421 126.02718732293116 1.9999999999999998
vertex 274.0473720558371 128.44999999999982 1.9999999999999998
endloop
endfacet
facet normal 0.0 0.0 1.0
outer loop
vertex 274.0473720558371 128.44999999999982 1.9999999999999998
vertex 274.1481348729421 126.02718732293116 1.9999999999999998
vertex 274.2221825406948 128.2221825406946 1.9999999999999998
endloop
endfacet
facet normal 0.0 0.0 1.0
outer loop
vertex 274.2221825406948 128.2221825406946 1.9999999999999998
vertex 274.1481348729421 126.02718732293116 1.9999999999999998
vertex 274.94658201160735 125.90800453975838 1.9999999999999998
endloop
endfacet
facet normal 0.0 0.0 1.0
outer loop
vertex 274.2221825406948 128.2221825406946 1.9999999999999998
vertex 274.94658201160735 125.90800453975838 1.9999999999999998
vertex 274.45 128.04737205583695 1.9999999999999998
endloop
endfacet
facet normal 0.0 0.0 1.0
outer loop
vertex 274.45 128.04737205583695 1.9999999999999998
vertex 274.94658201160735 125.90800453975838 1.9999999999999998
vertex 274.7152990503872 127.93748159108182 1.9999999999999998
endloop
endfacet
facet normal 0.0 0.0 1.0
outer loop
vertex 274.7152990503872 127.93748159108182 1.9999999999999998
vertex 274.94658201160735 125.90800453975838 1.9999999999999998
vertex 275.0 127.8999999999998 1.9999999999999998
endloop
endfacet
facet normal 0.0 0.0 1.0
outer loop
vertex 275.0 127.8999999999998 1.9999999999999998
vertex 274.94658201160735 125.90800453975838 1.9999999999999998
vertex 275.74866949790413 125.99953613743696 1.9999999999999998
endloop
endfacet
facet normal 0.0 0.0 1.0
outer loop
vertex 275.0 127.8999999999998 1.9999999999999998
vertex 275.74866949790413 125.99953613743696 1.9999999999999998
vertex 275.2847009496128 127.93748159108182 1.9999999999999998
endloop
endfacet
facet normal 0.0 0.0 1.0
outer loop
vertex 275.2847009496128 127.93748159108182 1.9999999999999998
vertex 275.74866949790413 125.99953613743696 1.9999999999999998
vertex 275.55 128.04737205583695 1.9999999999999998
endloop
endfacet
facet normal 0.0 0.0 1.0
outer loop
vertex 275.55 128.04737205583695 1.9999999999999998
vertex 275.74866949790413 125.99953613743696 1.9999999999999998
vertex 275.7778174593052 128.2221825406946 1.9999999999999998
endloop
endfacet
facet normal 0.0 0.0 1.0
outer loop
vertex 275.7778174593052 128.2221825406946 1.9999999999999998
vertex 275.74866949790413 125.99953613743696 1.9999999999999998
vertex 276.4997363951536 126.29554438884824 1.9999999999999998
endloop
endfacet
facet normal 0.0 0.0 1.0
outer loop
vertex 275.7778174593052 128.2221825406946 1.9999999999999998
vertex 276.4997363951536 126.29554438884824 1.9999999999999998
vertex 275.9526279441629 128.44999999999982 1.9999999999999998
endloop
endfacet
facet normal 0.0 0.0 1.0
outer loop
vertex 275.9526279441629 128.44999999999982 1.9999999999999998
vertex 276.4997363951536 126.29554438884824 1.9999999999999998
vertex 276.062518408918 128.71529905038705 1.9999999999999998
endloop
endfacet
facet normal 0.0 0.0 1.0
outer loop
vertex 276.062518408918 128.71529905038705 1.9999999999999998
vertex 276.4997363951536 126.29554438884824 1.9999999999999998
vertex 276.1 128.99999999999983 1.9999999999999998
endloop
endfacet
facet normal 0.0 0.0 1.0
outer loop
vertex 276.1 128.99999999999983 1.9999999999999998
vertex 276.4997363951536 126.29554438884824 1.9999999999999998
vertex 276.1 138.99999999999983 1.9999999999999998
endloop
endfacet
facet normal 0.0 0.0 1.0
outer loop
vertex 271.90800453975856 129.0534179883925 1.9999999999999998
vertex 271.97557660197003 139.75508943608352 1.9999999999999998
vertex 271.8831998033957 138.94658201160718 1.9999999999999998
endloop
endfacet
facet normal 0.0 0.0 1.0
outer loop
vertex 271.97557660197003 139.75508943608352 1.9999999999999998
vertex 271.90800453975856 129.0534179883925 1.9999999999999998
vertex 271.99953613743713 128.2513305020957 1.9999999999999998
endloop
endfacet
facet normal 0.0 0.0 1.0
outer loop
vertex 271.97557660197003 139.75508943608352 1.9999999999999998
vertex 271.99953613743713 128.2513305020957 1.9999999999999998
vertex 272.2740628570241 140.51213876333497 1.9999999999999998
endloop
endfacet
facet normal 0.0 0.0 1.0
outer loop
vertex 272.2740628570241 140.51213876333497 1.9999999999999998
vertex 271.99953613743713 128.2513305020957 1.9999999999999998
vertex 272.2955443888484 127.50026360484623 1.9999999999999998
endloop
endfacet
facet normal 0.0 0.0 1.0
outer loop
vertex 272.2740628570241 140.51213876333497 1.9999999999999998
vertex 272.2955443888484 127.50026360484623 1.9999999999999998
vertex 272.7583172235478 141.16613833279246 1.9999999999999998
endloop
endfacet
facet normal 0.0 0.0 1.0
outer loop
vertex 272.7583172235478 141.16613833279246 1.9999999999999998
vertex 272.2955443888484 127.50026360484623 1.9999999999999998
vertex 272.77585682083543 126.85140126449487 1.9999999999999998
endloop
endfacet
facet normal 0.0 0.0 1.0
outer loop
vertex 272.7583172235478 141.16613833279246 1.9999999999999998
vertex 272.77585682083543 126.85140126449487 1.9999999999999998
vertex 273.39533856673086 141.67251915458314 1.9999999999999998
endloop
endfacet
facet normal 0.0 0.0 1.0
outer loop
vertex 273.39533856673086 141.67251915458314 1.9999999999999998
vertex 272.77585682083543 126.85140126449487 1.9999999999999998
vertex 273.40774093491217 126.34896237724092 1.9999999999999998
endloop
endfacet
facet normal 0.0 0.0 1.0
outer loop
vertex 273.39533856673086 141.67251915458314 1.9999999999999998
vertex 273.40774093491217 126.34896237724092 1.9999999999999998
vertex 273.9 138.99999999999983 1.9999999999999998
endloop
endfacet
facet normal 0.0 0.0 1.0
outer loop
vertex 273.39533856673086 141.67251915458314 1.9999999999999998
vertex 273.9 138.99999999999983 1.9999999999999998
vertex 274.1417149347627 141.99677221253572 1.9999999999999998
endloop
endfacet
facet normal 0.0 0.0 1.0
outer loop
vertex 273.9 138.99999999999983 1.9999999999999998
vertex 273.40774093491217 126.34896237724092 1.9999999999999998
vertex 273.9 128.99999999999983 1.9999999999999998
endloop
endfacet
facet normal 0.0 0.0 1.0
outer loop
vertex 274.1417149347627 141.99677221253572 1.9999999999999998
vertex 273.9 138.99999999999983 1.9999999999999998
vertex 273.937481591082 139.2847009496126 1.9999999999999998
endloop
endfacet
facet normal 0.0 0.0 1.0
outer loop
vertex 274.1417149347627 141.99677221253572 1.9999999999999998
vertex 273.937481591082 139.2847009496126 1.9999999999999998
vertex 274.0473720558371 139.5499999999998 1.9999999999999998
endloop
endfacet
facet normal 0.0 0.0 1.0
outer loop
vertex 274.1417149347627 141.99677221253572 1.9999999999999998
vertex 274.0473720558371 139.5499999999998 1.9999999999999998
vertex 274.2221825406948 139.77781745930503 1.9999999999999998
endloop
endfacet
facet normal 0.0 0.0 1.0
outer loop
vertex 274.1417149347627 141.99677221253572 1.9999999999999998
vertex 274.2221825406948 139.77781745930503 1.9999999999999998
vertex 274.9465820116074 142.11680019660415 1.9999999999999998
endloop
endfacet
facet normal 0.0 0.0 1.0
outer loop
vertex 274.9465820116074 142.11680019660415 1.9999999999999998
vertex 274.2221825406948 139.77781745930503 1.9999999999999998
vertex 274.45 139.9526279441627 1.9999999999999998
endloop
endfacet
facet normal 0.0 0.0 1.0
outer loop
vertex 274.9465820116074 142.11680019660415 1.9999999999999998
vertex 274.45 139.9526279441627 1.9999999999999998
vertex 274.7152990503872 140.0625184089178 1.9999999999999998
endloop
endfacet
facet normal 0.0 0.0 1.0
outer loop
vertex 274.9465820116074 142.11680019660415 1.9999999999999998
vertex 274.7152990503872 140.0625184089178 1.9999999999999998
vertex 275.0 140.09999999999982 1.9999999999999998
endloop
endfacet
facet normal 0.0 0.0 1.0
outer loop
vertex 274.9465820116074 142.11680019660415 1.9999999999999998
vertex 275.0 140.09999999999982 1.9999999999999998
vertex 275.7550894360836 142.0244233980298 1.9999999999999998
endloop
endfacet
facet normal 0.0 0.0 1.0
outer loop
vertex 275.7550894360836 142.0244233980298 1.9999999999999998
vertex 275.0 140.09999999999982 1.9999999999999998
vertex 275.2847009496128 140.0625184089178 1.9999999999999998
endloop
endfacet
facet normal 0.0 0.0 1.0
outer loop
vertex 275.7550894360836 142.0244233980298 1.9999999999999998
vertex 275.2847009496128 140.0625184089178 1.9999999999999998
vertex 275.55 139.9526279441627 1.9999999999999998
endloop
endfacet
facet normal 0.0 0.0 1.0
outer loop
vertex 275.7550894360836 142.0244233980298 1.9999999999999998
vertex 275.55 139.9526279441627 1.9999999999999998
vertex 275.7778174593052 139.77781745930503 1.9999999999999998
endloop
endfacet
facet normal 0.0 0.0 1.0
outer loop
vertex 275.7550894360836 142.0244233980298 1.9999999999999998
vertex 275.7778174593052 139.77781745930503 1.9999999999999998
vertex 276.51213876333503 141.7259371429758 1.9999999999999998
endloop
endfacet
facet normal 0.0 0.0 1.0
outer loop
vertex 276.51213876333503 141.7259371429758 1.9999999999999998
vertex 275.7778174593052 139.77781745930503 1.9999999999999998
vertex 275.9526279441629 139.54999999999984 1.9999999999999998
endloop
endfacet
facet normal 0.0 0.0 1.0
outer loop
vertex 276.51213876333503 141.7259371429758 1.9999999999999998
vertex 275.9526279441629 139.54999999999984 1.9999999999999998
vertex 276.0625184089179 139.2847009496126 1.9999999999999998
endloop
endfacet
facet normal 0.0 0.0 1.0
outer loop
vertex 276.51213876333503 141.7259371429758 1.9999999999999998
vertex 276.0625184089179 139.2847009496126 1.9999999999999998
vertex 276.1 138.99999999999983 1.9999999999999998
endloop
endfacet
facet normal 0.0 0.0 1.0
outer loop
vertex 276.51213876333503 141.7259371429758 1.9999999999999998
vertex 276.1 138.99999999999983 1.9999999999999998
vertex 276.4997363951536 126.29554438884824 1.9999999999999998
endloop
endfacet
facet normal 0.0 0.0 1.0
outer loop
vertex 276.51213876333503 141.7259371429758 1.9999999999999998
vertex 276.4997363951536 126.29554438884824 1.9999999999999998
vertex 277.11680019660423 126.75231834032377 1.9999999999999998
endloop
endfacet
facet normal 0.0 0.0 1.0
outer loop
vertex 276.51213876333503 141.7259371429758 1.9999999999999998
vertex 277.11680019660423 126.75231834032377 1.9999999999999998
vertex 277.11680019660423 141.27821522846148 1.9999999999999998
endloop
endfacet
facet normal 0.0 0.0 1.0
outer loop
vertex 273.93748159108196 129.2847009496126 1.9999999999999998
vertex 273.9 138.99999999999983 1.9999999999999998
vertex 273.9 128.99999999999983 1.9999999999999998
endloop
endfacet
facet normal 0.0 0.0 1.0
outer loop
vertex 273.9 138.99999999999983 1.9999999999999998
vertex 273.93748159108196 129.2847009496126 1.9999999999999998
vertex 273.937481591082 138.71529905038707 1.9999999999999998
endloop
endfacet
facet normal 0.0 0.0 1.0
outer loop
vertex 273.937481591082 138.71529905038707 1.9999999999999998
vertex 273.93748159108196 129.2847009496126 1.9999999999999998
vertex 274.0473720558371 129.54999999999984 1.9999999999999998
endloop
endfacet
facet normal 0.0 0.0 1.0
outer loop
vertex 273.937481591082 138.71529905038707 1.9999999999999998
vertex 274.0473720558371 129.54999999999984 1.9999999999999998
vertex 274.0473720558371 138.44999999999982 1.9999999999999998
endloop
endfacet
facet normal 0.0 0.0 1.0
outer loop
vertex 274.0473720558371 138.44999999999982 1.9999999999999998
vertex 274.0473720558371 129.54999999999984 1.9999999999999998
vertex 274.2221825406948 129.77781745930506 1.9999999999999998
endloop
endfacet
facet normal 0.0 0.0 1.0
outer loop
vertex 274.0473720558371 138.44999999999982 1.9999999999999998
vertex 274.2221825406948 129.77781745930506 1.9999999999999998
vertex 274.2221825406948 138.22218254069463 1.9999999999999998
endloop
endfacet
facet normal 0.0 0.0 1.0
outer loop
vertex 274.2221825406948 138.22218254069463 1.9999999999999998
vertex 274.2221825406948 129.77781745930506 1.9999999999999998
vertex 274.45 129.9526279441627 1.9999999999999998
endloop
endfacet
facet normal 0.0 0.0 1.0
outer loop
vertex 274.2221825406948 138.22218254069463 1.9999999999999998
vertex 274.45 129.9526279441627 1.9999999999999998
vertex 274.45 138.04737205583695 1.9999999999999998
endloop
endfacet
facet normal 0.0 0.0 1.0
outer loop
vertex 274.45 138.04737205583695 1.9999999999999998
vertex 274.45 129.9526279441627 1.9999999999999998
vertex 274.7152990503872 130.06251840891784 1.9999999999999998
endloop
endfacet
facet normal 0.0 0.0 1.0
outer loop
vertex 274.45 138.04737205583695 1.9999999999999998
vertex 274.7152990503872 130.06251840891784 1.9999999999999998
vertex 274.7152990503872 137.93748159108185 1.9999999999999998
endloop
endfacet
facet normal 0.0 0.0 1.0
outer loop
vertex 274.7152990503872 137.93748159108185 1.9999999999999998
vertex 274.7152990503872 130.06251840891784 1.9999999999999998
vertex 275.0 130.09999999999985 1.9999999999999998
endloop
endfacet
facet normal 0.0 0.0 1.0
outer loop
vertex 274.7152990503872 137.93748159108185 1.9999999999999998
vertex 275.0 130.09999999999985 1.9999999999999998
vertex 275.0 137.89999999999984 1.9999999999999998
endloop
endfacet
facet normal 0.0 0.0 1.0
outer loop
vertex 275.0 137.89999999999984 1.9999999999999998
vertex 275.0 130.09999999999985 1.9999999999999998
vertex 275.2847009496128 130.06251840891784 1.9999999999999998
endloop
endfacet
facet normal 0.0 0.0 1.0
outer loop
vertex 275.0 137.89999999999984 1.9999999999999998
vertex 275.2847009496128 130.06251840891784 1.9999999999999998
vertex 275.2847009496128 137.93748159108185 1.9999999999999998
endloop
endfacet
facet normal 0.0 0.0 1.0
outer loop
vertex 275.2847009496128 137.93748159108185 1.9999999999999998
vertex 275.2847009496128 130.06251840891784 1.9999999999999998
vertex 275.55 129.9526279441627 1.9999999999999998
endloop
endfacet
facet normal 0.0 0.0 1.0
outer loop
vertex 275.2847009496128 137.93748159108185 1.9999999999999998
vertex 275.55 129.9526279441627 1.9999999999999998
vertex 275.55 138.04737205583695 1.9999999999999998
endloop
endfacet
facet normal 0.0 0.0 1.0
outer loop
vertex 275.55 138.04737205583695 1.9999999999999998
vertex 275.55 129.9526279441627 1.9999999999999998
vertex 275.7778174593052 129.77781745930506 1.9999999999999998
endloop
endfacet
facet normal 0.0 0.0 1.0
outer loop
vertex 275.55 138.04737205583695 1.9999999999999998
vertex 275.7778174593052 129.77781745930506 1.9999999999999998
vertex 275.7778174593052 138.22218254069463 1.9999999999999998
endloop
endfacet
facet normal 0.0 0.0 1.0
outer loop
vertex 275.7778174593052 138.22218254069463 1.9999999999999998
vertex 275.7778174593052 129.77781745930506 1.9999999999999998
vertex 275.9526279441629 129.54999999999984 1.9999999999999998
endloop
endfacet
facet normal 0.0 0.0 1.0
outer loop
vertex 275.7778174593052 138.22218254069463 1.9999999999999998
vertex 275.9526279441629 129.54999999999984 1.9999999999999998
vertex 275.9526279441629 138.44999999999985 1.9999999999999998
endloop
endfacet
facet normal 0.0 0.0 1.0
outer loop
vertex 275.9526279441629 138.44999999999985 1.9999999999999998
vertex 275.9526279441629 129.54999999999984 1.9999999999999998
vertex 276.062518408918 129.2847009496126 1.9999999999999998
endloop
endfacet
facet normal 0.0 0.0 1.0
outer loop
vertex 275.9526279441629 138.44999999999985 1.9999999999999998
vertex 276.062518408918 129.2847009496126 1.9999999999999998
vertex 276.0625184089179 138.71529905038707 1.9999999999999998
endloop
endfacet
facet normal 0.0 0.0 1.0
outer loop
vertex 276.0625184089179 138.71529905038707 1.9999999999999998
vertex 276.062518408918 129.2847009496126 1.9999999999999998
vertex 276.1 138.99999999999983 1.9999999999999998
endloop
endfacet
facet normal 0.0 0.0 1.0
outer loop
vertex 276.1 138.99999999999983 1.9999999999999998
vertex 276.062518408918 129.2847009496126 1.9999999999999998
vertex 276.1 128.99999999999983 1.9999999999999998
endloop
endfacet
facet normal -0.7191200834667524 0.6948858219555003 0.0
outer loop
vertex 272.7583172235478 141.16613833279246 1.9999999999999998
vertex 273.39533856673086 141.67251915458314 0.0
vertex 272.7583172235478 141.16613833279246 0.0
endloop
endfacet
facet normal -0.5147669759299491 0.8573301350657957 0.0
outer loop
vertex 273.39533856673086 141.67251915458314 0.0
vertex 272.7583172235478 141.16613833279246 1.9999999999999998
vertex 273.39533856673086 141.67251915458314 1.9999999999999998
endloop
endfacet
facet normal 0.9999999999471492 1.4026181627594344e-06 1.0185001881032158e-05
outer loop
vertex 277.116840936562 126.75235641872528 0.0008459351448916837
vertex 277.11680019660423 141.27821522846148 1.9999999999999998
vertex 277.11680019660423 126.75231834032377 1.9999999999999998
endloop
endfacet
facet normal 0.9999999999471492 1.4026181627594344e-06 1.0185001881032158e-05
outer loop
vertex 277.11680019660423 141.27821522846148 1.9999999999999998
vertex 277.116840936562 126.75235641872528 0.0008459351448916837
vertex 277.11680019660423 141.27821522846148 0.0
endloop
endfacet
facet normal -1.7502798377947405e-05 -2.374423479400748e-05 -0.9999999995649318
outer loop
vertex 271.97557660197003 139.75508943608352 0.0
vertex 271.9078623477515 129.05352676864456 0.0008434057155703389
vertex 271.8831998033957 138.94658201160718 0.0
endloop
endfacet
facet normal -1.7502798377947405e-05 -2.374423479400748e-05 -0.9999999995649318
outer loop
vertex 271.9078623477515 129.05352676864456 0.0008434057155703389
vertex 271.97557660197003 139.75508943608352 0.0
vertex 271.9995768773949 128.25136858049723 0.0008459351448916837
endloop
endfacet
facet normal -1.7502798377947405e-05 -2.374423479400748e-05 -0.9999999995649318
outer loop
vertex 271.9995768773949 128.25136858049723 0.0008459351448916837
vertex 271.97557660197003 139.75508943608352 0.0
vertex 272.2740628570241 140.51213876333497 0.0
endloop
endfacet
facet normal -1.7502798377947405e-05 -2.374423479400748e-05 -0.9999999995649318
outer loop
vertex 271.9995768773949 128.25136858049723 0.0008459351448916837
vertex 272.2740628570241 140.51213876333497 0.0
vertex 272.2955851288062 127.50030168324774 0.0008459351448916837
endloop
endfacet
facet normal -1.7502798377947405e-05 -2.374423479400748e-05 -0.9999999995649318
outer loop
vertex 272.2955851288062 127.50030168324774 0.0008459351448916837
vertex 272.2740628570241 140.51213876333497 0.0
vertex 272.7583172235478 141.16613833279246 0.0
endloop
endfacet
facet normal -1.7502798377947405e-05 -2.374423479400748e-05 -0.9999999995649318
outer loop
vertex 272.2955851288062 127.50030168324774 0.0008459351448916837
vertex 272.7583172235478 141.16613833279246 0.0
vertex 272.7758975607932 126.85143934289638 0.0008459351448916837
endloop
endfacet
facet normal -1.7502798377947405e-05 -2.374423479400748e-05 -0.9999999995649318
outer loop
vertex 272.7758975607932 126.85143934289638 0.0008459351448916837
vertex 272.7583172235478 141.16613833279246 0.0
vertex 273.39533856673086 141.67251915458314 0.0
endloop
endfacet
facet normal -1.7502798377947405e-05 -2.374423479400748e-05 -0.9999999995649318
outer loop
vertex 272.7758975607932 126.85143934289638 0.0008459351448916837
vertex 273.39533856673086 141.67251915458314 0.0
vertex 273.40778167486997 126.34900045564243 0.0008459351448916837
endloop
endfacet
facet normal -1.7502798377947405e-05 -2.374423479400748e-05 -0.9999999995649318
outer loop
vertex 273.40778167486997 126.34900045564243 0.0008459351448916837
vertex 273.39533856673086 141.67251915458314 0.0
vertex 273.9 138.99999999999983 0.0001707886678121301
endloop
endfacet
facet normal -1.7502798377947405e-05 -2.374423479400748e-05 -0.9999999995649318
outer loop
vertex 273.9 138.99999999999983 0.0001707886678121301
vertex 273.39533856673086 141.67251915458314 0.0
vertex 274.1417149347627 141.99677221253572 0.0
endloop
endfacet
facet normal -1.7502798377947405e-05 -2.374423479400748e-05 -0.9999999995649318
outer loop
vertex 273.9 138.99999999999983 0.0001707886678121301
vertex 274.1417149347627 141.99677221253572 0.0
vertex 273.937481591082 139.2847009496126 0.0001707886678121301
endloop
endfacet
facet normal -1.7502798377947405e-05 -2.374423479400748e-05 -0.9999999995649318
outer loop
vertex 273.937481591082 139.2847009496126 0.0001707886678121301
vertex 274.1417149347627 141.99677221253572 0.0
vertex 274.0473720558371 139.5499999999998 0.0001707886678121301
endloop
endfacet
facet normal -1.7502798377947405e-05 -2.374423479400748e-05 -0.9999999995649318
outer loop
vertex 274.0473720558371 139.5499999999998 0.0001707886678121301
vertex 274.1417149347627 141.99677221253572 0.0
vertex 274.2221825406948 139.77781745930503 0.0001707886678121301
endloop
endfacet
facet normal -1.7502798377947405e-05 -2.374423479400748e-05 -0.9999999995649318
outer loop
vertex 274.2221825406948 139.77781745930503 0.0001707886678121301
vertex 274.1417149347627 141.99677221253572 0.0
vertex 274.9465820116074 142.11680019660415 0.0
endloop
endfacet
facet normal -1.7502798377947405e-05 -2.374423479400748e-05 -0.9999999995649318
outer loop
vertex 274.2221825406948 139.77781745930503 0.0001707886678121301
vertex 274.9465820116074 142.11680019660415 0.0
vertex 274.45 139.9526279441627 0.0001707886678121301
endloop
endfacet
facet normal -1.7502798377947405e-05 -2.374423479400748e-05 -0.9999999995649318
outer loop
vertex 274.45 139.9526279441627 0.0001707886678121301
vertex 274.9465820116074 142.11680019660415 0.0
vertex 274.7152990503872 140.0625184089178 0.0001707886678121301
endloop
endfacet
facet normal -1.7502798377947405e-05 -2.374423479400748e-05 -0.9999999995649318
outer loop
vertex 274.7152990503872 140.0625184089178 0.0001707886678121301
vertex 274.9465820116074 142.11680019660415 0.0
vertex 275.0 140.09999999999982 0.0001707886678121301
endloop
endfacet
facet normal -1.7502798377947405e-05 -2.374423479400748e-05 -0.9999999995649318
outer loop
vertex 275.0 140.09999999999982 0.0001707886678121301
vertex 274.9465820116074 142.11680019660415 0.0
vertex 275.7550894360836 142.0244233980298 0.0
endloop
endfacet
facet normal -1.7502798377947405e-05 -2.374423479400748e-05 -0.9999999995649318
outer loop
vertex 275.0 140.09999999999982 0.0001707886678121301
vertex 275.7550894360836 142.0244233980298 0.0
vertex 275.2847009496128 140.0625184089178 0.0001707886678121301
endloop
endfacet
facet normal -1.7502798377947405e-05 -2.374423479400748e-05 -0.9999999995649318
outer loop
vertex 275.2847009496128 140.0625184089178 0.0001707886678121301
vertex 275.7550894360836 142.0244233980298 0.0
vertex 275.55 139.9526279441627 0.0001707886678121301
endloop
endfacet
facet normal -1.7502798377947405e-05 -2.374423479400748e-05 -0.9999999995649318
outer loop
vertex 275.55 139.9526279441627 0.0001707886678121301
vertex 275.7550894360836 142.0244233980298 0.0
vertex 275.7778174593052 139.77781745930503 0.0001707886678121301
endloop
endfacet
facet normal -1.7502798377947405e-05 -2.374423479400748e-05 -0.9999999995649318
outer loop
vertex 275.7778174593052 139.77781745930503 0.0001707886678121301
vertex 275.7550894360836 142.0244233980298 0.0
vertex 276.51213876333503 141.7259371429758 0.0
endloop
endfacet
facet normal -1.7502798377947405e-05 -2.374423479400748e-05 -0.9999999995649318
outer loop
vertex 275.7778174593052 139.77781745930503 0.0001707886678121301
vertex 276.51213876333503 141.7259371429758 0.0
vertex 275.9526279441629 139.54999999999984 0.0001707886678121301
endloop
endfacet
facet normal -1.7502798377947405e-05 -2.374423479400748e-05 -0.9999999995649318
outer loop
vertex 275.9526279441629 139.54999999999984 0.0001707886678121301
vertex 276.51213876333503 141.7259371429758 0.0
vertex 276.0625184089179 139.2847009496126 0.0001707886678121301
endloop
endfacet
facet normal -1.7502798377947405e-05 -2.374423479400748e-05 -0.9999999995649318
outer loop
vertex 276.0625184089179 139.2847009496126 0.0001707886678121301
vertex 276.51213876333503 141.7259371429758 0.0
vertex 276.1 138.99999999999983 0.0001707886678121301
endloop
endfacet
facet normal -1.7502798377947405e-05 -2.374423479400748e-05 -0.9999999995649318
outer loop
vertex 276.1 138.99999999999983 0.0001707886678121301
vertex 276.51213876333503 141.7259371429758 0.0
vertex 276.1 128.99999999999983 0.0008459351448950325
endloop
endfacet
facet normal -1.7502798377947405e-05 -2.374423479400748e-05 -0.9999999995649318
outer loop
vertex 276.1 128.99999999999983 0.0008459351448950325
vertex 276.51213876333503 141.7259371429758 0.0
vertex 276.4997771351114 126.29558246724976 0.0008459351448916837
endloop
endfacet
facet normal -1.7502798377947405e-05 -2.374423479400748e-05 -0.9999999995649318
outer loop
vertex 276.4997771351114 126.29558246724976 0.0008459351448916837
vertex 276.51213876333503 141.7259371429758 0.0
vertex 277.116840936562 126.75235641872528 0.0008459351448916837
endloop
endfacet
facet normal -1.7502798377947405e-05 -2.374423479400748e-05 -0.9999999995649318
outer loop
vertex 277.116840936562 126.75235641872528 0.0008459351448916837
vertex 276.51213876333503 141.7259371429758 0.0
vertex 277.11680019660423 141.27821522846148 0.0
endloop
endfacet
facet normal -1.7502798377947405e-05 -2.374423479400748e-05 -0.9999999995649318
outer loop
vertex 273.40778167486997 126.34900045564243 0.0008459351448916837
vertex 273.9 128.99999999999983 0.0008459351448950325
vertex 274.1481756128999 126.02722540133266 0.0008459351448916837
endloop
endfacet
facet normal -1.7502798377947405e-05 -2.374423479400748e-05 -0.9999999995649318
outer loop
vertex 273.9 128.99999999999983 0.0008459351448950325
vertex 273.40778167486997 126.34900045564243 0.0008459351448916837
vertex 273.9 138.99999999999983 0.0001707886678121301
endloop
endfacet
facet normal -1.7502798377947405e-05 -2.374423479400748e-05 -0.9999999995649318
outer loop
vertex 274.1481756128999 126.02722540133266 0.0008459351448916837
vertex 273.9 128.99999999999983 0.0008459351448950325
vertex 273.93748159108196 128.71529905038705 0.0008459351448950325
endloop
endfacet
facet normal -1.7502798377947405e-05 -2.374423479400748e-05 -0.9999999995649318
outer loop
vertex 274.1481756128999 126.02722540133266 0.0008459351448916837
vertex 273.93748159108196 128.71529905038705 0.0008459351448950325
vertex 274.0473720558371 128.44999999999982 0.0008459351448950325
endloop
endfacet
facet normal -1.7502798377947405e-05 -2.374423479400748e-05 -0.9999999995649318
outer loop
vertex 274.1481756128999 126.02722540133266 0.0008459351448916837
vertex 274.0473720558371 128.44999999999982 0.0008459351448950325
vertex 274.2221825406948 128.2221825406946 0.0008459351448950325
endloop
endfacet
facet normal -1.7502798377947405e-05 -2.374423479400748e-05 -0.9999999995649318
outer loop
vertex 274.1481756128999 126.02722540133266 0.0008459351448916837
vertex 274.2221825406948 128.2221825406946 0.0008459351448950325
vertex 274.94662275156514 125.90804261815988 0.0008459351448916837
endloop
endfacet
facet normal -1.7502798377947405e-05 -2.374423479400748e-05 -0.9999999995649318
outer loop
vertex 274.94662275156514 125.90804261815988 0.0008459351448916837
vertex 274.2221825406948 128.2221825406946 0.0008459351448950325
vertex 274.45 128.04737205583695 0.0008459351448950325
endloop
endfacet
facet normal -1.7502798377947405e-05 -2.374423479400748e-05 -0.9999999995649318
outer loop
vertex 274.94662275156514 125.90804261815988 0.0008459351448916837
vertex 274.45 128.04737205583695 0.0008459351448950325
vertex 274.7152990503872 127.93748159108182 0.0008459351448950325
endloop
endfacet
facet normal -1.7502798377947405e-05 -2.374423479400748e-05 -0.9999999995649318
outer loop
vertex 274.94662275156514 125.90804261815988 0.0008459351448916837
vertex 274.7152990503872 127.93748159108182 0.0008459351448950325
vertex 275.0 127.8999999999998 0.0008459351448950325
endloop
endfacet
facet normal -1.7502798377947405e-05 -2.374423479400748e-05 -0.9999999995649318
outer loop
vertex 274.94662275156514 125.90804261815988 0.0008459351448916837
vertex 275.0 127.8999999999998 0.0008459351448950325
vertex 275.7487102378619 125.99957421583846 0.0008459351448916837
endloop
endfacet
facet normal -1.7502798377947405e-05 -2.374423479400748e-05 -0.9999999995649318
outer loop
vertex 275.7487102378619 125.99957421583846 0.0008459351448916837
vertex 275.0 127.8999999999998 0.0008459351448950325
vertex 275.2847009496128 127.93748159108182 0.0008459351448950325
endloop
endfacet
facet normal -1.7502798377947405e-05 -2.374423479400748e-05 -0.9999999995649318
outer loop
vertex 275.7487102378619 125.99957421583846 0.0008459351448916837
vertex 275.2847009496128 127.93748159108182 0.0008459351448950325
vertex 275.55 128.04737205583695 0.0008459351448950325
endloop
endfacet
facet normal -1.7502798377947405e-05 -2.374423479400748e-05 -0.9999999995649318
outer loop
vertex 275.7487102378619 125.99957421583846 0.0008459351448916837
vertex 275.55 128.04737205583695 0.0008459351448950325
vertex 275.7778174593052 128.2221825406946 0.0008459351448950325
endloop
endfacet
facet normal -1.7502798377947405e-05 -2.374423479400748e-05 -0.9999999995649318
outer loop
vertex 275.7487102378619 125.99957421583846 0.0008459351448916837
vertex 275.7778174593052 128.2221825406946 0.0008459351448950325
vertex 276.4997771351114 126.29558246724976 0.0008459351448916837
endloop
endfacet
facet normal -1.7502798377947405e-05 -2.374423479400748e-05 -0.9999999995649318
outer loop
vertex 276.4997771351114 126.29558246724976 0.0008459351448916837
vertex 275.7778174593052 128.2221825406946 0.0008459351448950325
vertex 275.9526279441629 128.44999999999982 0.0008459351448950325
endloop
endfacet
facet normal -1.7502798377947405e-05 -2.374423479400748e-05 -0.9999999995649318
outer loop
vertex 276.4997771351114 126.29558246724976 0.0008459351448916837
vertex 275.9526279441629 128.44999999999982 0.0008459351448950325
vertex 276.062518408918 128.71529905038705 0.0008459351448950325
endloop
endfacet
facet normal -1.7502798377947405e-05 -2.374423479400748e-05 -0.9999999995649318
outer loop
vertex 276.4997771351114 126.29558246724976 0.0008459351448916837
vertex 276.062518408918 128.71529905038705 0.0008459351448950325
vertex 276.1 128.99999999999983 0.0008459351448950325
endloop
endfacet
facet normal -1.7502798377947405e-05 -2.374423479400748e-05 -0.9999999995649318
outer loop
vertex 273.937481591082 138.71529905038707 0.0001707886678121301
vertex 273.9 128.99999999999983 0.0008459351448950325
vertex 273.9 138.99999999999983 0.0001707886678121301
endloop
endfacet
facet normal -1.7502798377947405e-05 -2.374423479400748e-05 -0.9999999995649318
outer loop
vertex 273.9 128.99999999999983 0.0008459351448950325
vertex 273.937481591082 138.71529905038707 0.0001707886678121301
vertex 273.93748159108196 129.2847009496126 0.0008459351448950325
endloop
endfacet
facet normal -1.7502798377947405e-05 -2.374423479400748e-05 -0.9999999995649318
outer loop
vertex 273.93748159108196 129.2847009496126 0.0008459351448950325
vertex 273.937481591082 138.71529905038707 0.0001707886678121301
vertex 274.0473720558371 129.54999999999984 0.0008459351448950325
endloop
endfacet
facet normal -1.7502798377947405e-05 -2.374423479400748e-05 -0.9999999995649318
outer loop
vertex 274.0473720558371 129.54999999999984 0.0008459351448950325
vertex 273.937481591082 138.71529905038707 0.0001707886678121301
vertex 274.0473720558371 138.44999999999982 0.0001707886678121301
endloop
endfacet
facet normal -1.7502798377947405e-05 -2.374423479400748e-05 -0.9999999995649318
outer loop
vertex 274.0473720558371 129.54999999999984 0.0008459351448950325
vertex 274.0473720558371 138.44999999999982 0.0001707886678121301
vertex 274.2221825406948 138.22218254069463 0.0001707886678121301
endloop
endfacet
facet normal -1.7502798377947405e-05 -2.374423479400748e-05 -0.9999999995649318
outer loop
vertex 274.0473720558371 129.54999999999984 0.0008459351448950325
vertex 274.2221825406948 138.22218254069463 0.0001707886678121301
vertex 274.2221825406948 129.77781745930506 0.0008459351448950325
endloop
endfacet
facet normal -1.7502798377947405e-05 -2.374423479400748e-05 -0.9999999995649318
outer loop
vertex 274.2221825406948 129.77781745930506 0.0008459351448950325
vertex 274.2221825406948 138.22218254069463 0.0001707886678121301
vertex 274.45 138.04737205583695 0.0001707886678121301
endloop
endfacet
facet normal -1.7502798377947405e-05 -2.374423479400748e-05 -0.9999999995649318
outer loop
vertex 274.2221825406948 129.77781745930506 0.0008459351448950325
vertex 274.45 138.04737205583695 0.0001707886678121301
vertex 274.45 129.9526279441627 0.0008459351448950325
endloop
endfacet
facet normal -1.7502798377947405e-05 -2.374423479400748e-05 -0.9999999995649318
outer loop
vertex 274.45 129.9526279441627 0.0008459351448950325
vertex 274.45 138.04737205583695 0.0001707886678121301
vertex 274.7152990503872 137.93748159108185 0.0001707886678121301
endloop
endfacet
facet normal -1.7502798377947405e-05 -2.374423479400748e-05 -0.9999999995649318
outer loop
vertex 274.45 129.9526279441627 0.0008459351448950325
vertex 274.7152990503872 137.93748159108185 0.0001707886678121301
vertex 274.7152990503872 130.06251840891784 0.0008459351448950325
endloop
endfacet
facet normal -1.7502798377947405e-05 -2.374423479400748e-05 -0.9999999995649318
outer loop
vertex 274.7152990503872 130.06251840891784 0.0008459351448950325
vertex 274.7152990503872 137.93748159108185 0.0001707886678121301
vertex 275.0 137.89999999999984 0.0001707886678121301
endloop
endfacet
facet normal -1.7502798377947405e-05 -2.374423479400748e-05 -0.9999999995649318
outer loop
vertex 274.7152990503872 130.06251840891784 0.0008459351448950325
vertex 275.0 137.89999999999984 0.0001707886678121301
vertex 275.0 130.09999999999985 0.0008459351448950325
endloop
endfacet
facet normal -1.7502798377947405e-05 -2.374423479400748e-05 -0.9999999995649318
outer loop
vertex 275.0 130.09999999999985 0.0008459351448950325
vertex 275.0 137.89999999999984 0.0001707886678121301
vertex 275.2847009496128 137.93748159108185 0.0001707886678121301
endloop
endfacet
facet normal -1.7502798377947405e-05 -2.374423479400748e-05 -0.9999999995649318
outer loop
vertex 275.0 130.09999999999985 0.0008459351448950325
vertex 275.2847009496128 137.93748159108185 0.0001707886678121301
vertex 275.2847009496128 130.06251840891784 0.0008459351448950325
endloop
endfacet
facet normal -1.7502798377947405e-05 -2.374423479400748e-05 -0.9999999995649318
outer loop
vertex 275.2847009496128 130.06251840891784 0.0008459351448950325
vertex 275.2847009496128 137.93748159108185 0.0001707886678121301
vertex 275.55 138.04737205583695 0.0001707886678121301
endloop
endfacet
facet normal -1.7502798377947405e-05 -2.374423479400748e-05 -0.9999999995649318
outer loop
vertex 275.2847009496128 130.06251840891784 0.0008459351448950325
vertex 275.55 138.04737205583695 0.0001707886678121301
vertex 275.55 129.9526279441627 0.0008459351448950325
endloop
endfacet
facet normal -1.7502798377947405e-05 -2.374423479400748e-05 -0.9999999995649318
outer loop
vertex 275.55 129.9526279441627 0.0008459351448950325
vertex 275.55 138.04737205583695 0.0001707886678121301
vertex 275.7778174593052 138.22218254069463 0.0001707886678121301
endloop
endfacet
facet normal -1.7502798377947405e-05 -2.374423479400748e-05 -0.9999999995649318
outer loop
vertex 275.55 129.9526279441627 0.0008459351448950325
vertex 275.7778174593052 138.22218254069463 0.0001707886678121301
vertex 275.7778174593052 129.77781745930506 0.0008459351448950325
endloop
endfacet
facet normal -1.7502798377947405e-05 -2.374423479400748e-05 -0.9999999995649318
outer loop
vertex 275.7778174593052 129.77781745930506 0.0008459351448950325
vertex 275.7778174593052 138.22218254069463 0.0001707886678121301
vertex 275.9526279441629 138.44999999999985 0.0001707886678121301
endloop
endfacet
facet normal -1.7502798377947405e-05 -2.374423479400748e-05 -0.9999999995649318
outer loop
vertex 275.7778174593052 129.77781745930506 0.0008459351448950325
vertex 275.9526279441629 138.44999999999985 0.0001707886678121301
vertex 275.9526279441629 129.54999999999984 0.0008459351448950325
endloop
endfacet
facet normal -1.7502798377947405e-05 -2.374423479400748e-05 -0.9999999995649318
outer loop
vertex 275.9526279441629 129.54999999999984 0.0008459351448950325
vertex 275.9526279441629 138.44999999999985 0.0001707886678121301
vertex 276.0625184089179 138.71529905038707 0.0001707886678121301
endloop
endfacet
facet normal -1.7502798377947405e-05 -2.374423479400748e-05 -0.9999999995649318
outer loop
vertex 275.9526279441629 129.54999999999984 0.0008459351448950325
vertex 276.0625184089179 138.71529905038707 0.0001707886678121301
vertex 276.062518408918 129.2847009496126 0.0008459351448950325
endloop
endfacet
facet normal -1.7502798377947405e-05 -2.374423479400748e-05 -0.9999999995649318
outer loop
vertex 276.062518408918 129.2847009496126 0.0008459351448950325
vertex 276.0625184089179 138.71529905038707 0.0001707886678121301
vertex 276.1 138.99999999999983 0.0001707886678121301
endloop
endfacet
facet normal -1.7502798377947405e-05 -2.374423479400748e-05 -0.9999999995649318
outer loop
vertex 276.062518408918 129.2847009496126 0.0008459351448950325
vertex 276.1 138.99999999999983 0.0001707886678121301
vertex 276.1 128.99999999999983 0.0008459351448950325
endloop
endfacet
facet normal -0.874466345717482 0.4850861884320281 0.0
outer loop
vertex 272.2740628570241 140.51213876333497 1.9999999999999998
vertex 271.97557660197003 139.75508943608352 0.0
vertex 271.97557660197003 139.75508943608352 1.9999999999999998
endloop
endfacet
facet normal -0.9702191716315511 0.24222873280968746 0.0
outer loop
vertex 271.97557660197003 139.75508943608352 0.0
vertex 272.2740628570241 140.51213876333497 1.9999999999999998
vertex 272.2740628570241 140.51213876333497 0.0
endloop
endfacet
facet normal -0.9702191716315511 0.24222873280968746 0.0
outer loop
vertex 271.97557660197003 139.75508943608352 1.9999999999999998
vertex 271.8831998033957 138.94658201160718 0.0
vertex 271.8831998033957 138.94658201160718 1.9999999999999998
endloop
endfacet
facet normal -0.9935360062603932 0.1135174183292947 0.0
outer loop
vertex 271.8831998033957 138.94658201160718 0.0
vertex 271.97557660197003 139.75508943608352 1.9999999999999998
vertex 271.97557660197003 139.75508943608352 0.0
endloop
endfacet
facet normal -0.8660254037844594 -0.49999999999996436 0.0
outer loop
vertex 275.9526279441629 139.54999999999984 1.9999999999999998
vertex 276.0625184089179 139.2847009496126 0.0001707886678121301
vertex 276.0625184089179 139.2847009496126 1.9999999999999998
endloop
endfacet
facet normal -0.9659258262890648 -0.25881904510253445 0.0
outer loop
vertex 276.0625184089179 139.2847009496126 0.0001707886678121301
vertex 275.9526279441629 139.54999999999984 1.9999999999999998
vertex 275.9526279441629 139.54999999999984 0.0001707886678121301
endloop
endfacet
facet normal -1.0 0.0 0.0
outer loop
vertex 276.1 138.99999999999983 1.9999999999999998
vertex 276.0625184089179 138.71529905038707 0.0001707886678121301
vertex 276.0625184089179 138.71529905038707 1.9999999999999998
endloop
endfacet
facet normal -0.9659258262890609 0.25881904510254905 0.0
outer loop
vertex 276.0625184089179 138.71529905038707 0.0001707886678121301
vertex 276.1 138.99999999999983 1.9999999999999998
vertex 276.1 138.99999999999983 0.0001707886678121301
endloop
endfacet
facet normal 0.9659258262890648 0.25881904510253445 0.0
outer loop
vertex 273.937481591082 138.71529905038707 0.0001707886678121301
vertex 274.0473720558371 138.44999999999982 1.9999999999999998
vertex 274.0473720558371 138.44999999999982 0.0001707886678121301
endloop
endfacet
facet normal 0.8660254037844594 0.49999999999996436 0.0
outer loop
vertex 274.0473720558371 138.44999999999982 1.9999999999999998
vertex 273.937481591082 138.71529905038707 0.0001707886678121301
vertex 273.937481591082 138.71529905038707 1.9999999999999998
endloop
endfacet
facet normal -0.25881904510250386 0.9659258262890729 0.0
outer loop
vertex 275.2847009496128 137.93748159108185 1.9999999999999998
vertex 275.55 138.04737205583695 0.0001707886678121301
vertex 275.2847009496128 137.93748159108185 0.0001707886678121301
endloop
endfacet
facet normal -0.5000000000000152 0.86602540378443 0.0
outer loop
vertex 275.55 138.04737205583695 0.0001707886678121301
vertex 275.2847009496128 137.93748159108185 1.9999999999999998
vertex 275.55 138.04737205583695 1.9999999999999998
endloop
endfacet
facet normal 0.9659258262890609 -0.25881904510254905 0.0
outer loop
vertex 273.937481591082 139.2847009496126 0.0001707886678121301
vertex 273.9 138.99999999999983 1.9999999999999998
vertex 273.9 138.99999999999983 0.0001707886678121301
endloop
endfacet
facet normal 1.0 0.0 0.0
outer loop
vertex 273.9 138.99999999999983 1.9999999999999998
vertex 273.937481591082 139.2847009496126 0.0001707886678121301
vertex 273.937481591082 139.2847009496126 1.9999999999999998
endloop
endfacet
facet normal 1.0 0.0 0.0
outer loop
vertex 273.9 138.99999999999983 0.0001707886678121301
vertex 273.937481591082 138.71529905038707 1.9999999999999998
vertex 273.937481591082 138.71529905038707 0.0001707886678121301
endloop
endfacet
facet normal 0.9659258262890648 0.25881904510253445 0.0
outer loop
vertex 273.937481591082 138.71529905038707 1.9999999999999998
vertex 273.9 138.99999999999983 0.0001707886678121301
vertex 273.9 138.99999999999983 1.9999999999999998
endloop
endfacet
facet normal 0.7071067811865527 0.7071067811865424 0.0
outer loop
vertex 274.2221825406948 138.22218254069463 1.9999999999999998
vertex 274.45 138.04737205583695 0.0001707886678121301
vertex 274.2221825406948 138.22218254069463 0.0001707886678121301
endloop
endfacet
facet normal 0.5000000000000152 0.86602540378443 0.0
outer loop
vertex 274.45 138.04737205583695 0.0001707886678121301
vertex 274.2221825406948 138.22218254069463 1.9999999999999998
vertex 274.45 138.04737205583695 1.9999999999999998
endloop
endfacet
facet normal 0.5000000000000152 -0.86602540378443 0.0
outer loop
vertex 274.45 139.9526279441627 1.9999999999999998
vertex 274.2221825406948 139.77781745930503 0.0001707886678121301
vertex 274.45 139.9526279441627 0.0001707886678121301
endloop
endfacet
facet normal 0.7071067811865697 -0.7071067811865256 0.0
outer loop
vertex 274.2221825406948 139.77781745930503 0.0001707886678121301
vertex 274.45 139.9526279441627 1.9999999999999998
vertex 274.2221825406948 139.77781745930503 1.9999999999999998
endloop
endfacet
facet normal 0.7071067811865697 -0.7071067811865256 0.0
outer loop
vertex 274.2221825406948 139.77781745930503 0.0001707886678121301
vertex 274.0473720558371 139.5499999999998 1.9999999999999998
vertex 274.0473720558371 139.5499999999998 0.0001707886678121301
endloop
endfacet
facet normal 0.8660254037844637 -0.49999999999995676 0.0
outer loop
vertex 274.0473720558371 139.5499999999998 1.9999999999999998
vertex 274.2221825406948 139.77781745930503 0.0001707886678121301
vertex 274.2221825406948 139.77781745930503 1.9999999999999998
endloop
endfacet
facet normal -0.8660254037844637 0.49999999999995676 0.0
outer loop
vertex 275.9526279441629 138.44999999999985 1.9999999999999998
vertex 275.7778174593052 138.22218254069463 0.0001707886678121301
vertex 275.7778174593052 138.22218254069463 1.9999999999999998
endloop
endfacet
facet normal -0.7071067811865697 0.7071067811865256 0.0
outer loop
vertex 275.7778174593052 138.22218254069463 0.0001707886678121301
vertex 275.9526279441629 138.44999999999985 1.9999999999999998
vertex 275.9526279441629 138.44999999999985 0.0001707886678121301
endloop
endfacet
facet normal 0.9659258262890635 0.25881904510253895 0.0
outer loop
vertex 273.93748159108196 128.71529905038705 0.0008459351448950325
vertex 274.0473720558371 128.44999999999982 1.9999999999999998
vertex 274.0473720558371 128.44999999999982 0.0008459351448950325
endloop
endfacet
facet normal 0.8660254037844274 0.5000000000000195 0.0
outer loop
vertex 274.0473720558371 128.44999999999982 1.9999999999999998
vertex 273.93748159108196 128.71529905038705 0.0008459351448950325
vertex 273.93748159108196 128.71529905038705 1.9999999999999998
endloop
endfacet
facet normal -0.9659258262890635 0.25881904510253895 0.0
outer loop
vertex 276.062518408918 128.71529905038705 1.9999999999999998
vertex 275.9526279441629 128.44999999999982 0.0008459351448950325
vertex 275.9526279441629 128.44999999999982 1.9999999999999998
endloop
endfacet
facet normal -0.8660254037844274 0.5000000000000195 0.0
outer loop
vertex 275.9526279441629 128.44999999999982 0.0008459351448950325
vertex 276.062518408918 128.71529905038705 1.9999999999999998
vertex 276.062518408918 128.71529905038705 0.0008459351448950325
endloop
endfacet
facet normal 0.7071067811865476 -0.7071067811865476 0.0
outer loop
vertex 274.2221825406948 129.77781745930506 0.0008459351448950325
vertex 274.0473720558371 129.54999999999984 1.9999999999999998
vertex 274.0473720558371 129.54999999999984 0.0008459351448950325
endloop
endfacet
facet normal 0.8660254037844274 -0.5000000000000195 0.0
outer loop
vertex 274.0473720558371 129.54999999999984 1.9999999999999998
vertex 274.2221825406948 129.77781745930506 0.0008459351448950325
vertex 274.2221825406948 129.77781745930506 1.9999999999999998
endloop
endfacet
facet normal -0.7071067811865476 -0.7071067811865476 0.0
outer loop
vertex 275.7778174593052 129.77781745930506 1.9999999999999998
vertex 275.9526279441629 129.54999999999984 0.0008459351448950325
vertex 275.9526279441629 129.54999999999984 1.9999999999999998
endloop
endfacet
facet normal -0.8660254037844274 -0.5000000000000195 0.0
outer loop
vertex 275.9526279441629 129.54999999999984 0.0008459351448950325
vertex 275.7778174593052 129.77781745930506 1.9999999999999998
vertex 275.7778174593052 129.77781745930506 0.0008459351448950325
endloop
endfacet
facet normal 0.0 -1.0 0.0
outer loop
vertex 275.0 130.09999999999985 1.9999999999999998
vertex 274.7152990503872 130.06251840891784 0.0008459351448950325
vertex 275.0 130.09999999999985 0.0008459351448950325
endloop
endfacet
facet normal 0.25881904510253895 -0.9659258262890635 0.0
outer loop
vertex 274.7152990503872 130.06251840891784 0.0008459351448950325
vertex 275.0 130.09999999999985 1.9999999999999998
vertex 274.7152990503872 130.06251840891784 1.9999999999999998
endloop
endfacet
facet normal -0.8660254037844274 -0.5000000000000195 0.0
outer loop
vertex 275.9526279441629 129.54999999999984 1.9999999999999998
vertex 276.062518408918 129.2847009496126 0.0008459351448950325
vertex 276.062518408918 129.2847009496126 1.9999999999999998
endloop
endfacet
facet normal -0.9659258262890635 -0.25881904510253895 0.0
outer loop
vertex 276.062518408918 129.2847009496126 0.0008459351448950325
vertex 275.9526279441629 129.54999999999984 1.9999999999999998
vertex 275.9526279441629 129.54999999999984 0.0008459351448950325
endloop
endfacet
facet normal -0.5000000000000195 0.8660254037844274 0.0
outer loop
vertex 275.55 128.04737205583695 1.9999999999999998
vertex 275.7778174593052 128.2221825406946 0.0008459351448950325
vertex 275.55 128.04737205583695 0.0008459351448950325
endloop
endfacet
facet normal -0.7071067811865476 0.7071067811865476 0.0
outer loop
vertex 275.7778174593052 128.2221825406946 0.0008459351448950325
vertex 275.55 128.04737205583695 1.9999999999999998
vertex 275.7778174593052 128.2221825406946 1.9999999999999998
endloop
endfacet
facet normal -1.0 0.0 0.0
outer loop
vertex 276.1 128.99999999999983 1.9999999999999998
vertex 276.062518408918 128.71529905038705 0.0008459351448950325
vertex 276.062518408918 128.71529905038705 1.9999999999999998
endloop
endfacet
facet normal -0.9659258262890635 0.25881904510253895 0.0
outer loop
vertex 276.062518408918 128.71529905038705 0.0008459351448950325
vertex 276.1 128.99999999999983 1.9999999999999998
vertex 276.1 128.99999999999983 0.0008459351448950325
endloop
endfacet
facet normal -0.5000000000000195 -0.8660254037844274 0.0
outer loop
vertex 275.55 129.9526279441627 1.9999999999999998
vertex 275.2847009496128 130.06251840891784 0.0008459351448950325
vertex 275.55 129.9526279441627 0.0008459351448950325
endloop
endfacet
facet normal -0.25881904510253895 -0.9659258262890635 0.0
outer loop
vertex 275.2847009496128 130.06251840891784 0.0008459351448950325
vertex 275.55 129.9526279441627 1.9999999999999998
vertex 275.2847009496128 130.06251840891784 1.9999999999999998
endloop
endfacet
facet normal 0.5000000000000195 -0.8660254037844274 0.0
outer loop
vertex 274.45 129.9526279441627 1.9999999999999998
vertex 274.2221825406948 129.77781745930506 0.0008459351448950325
vertex 274.45 129.9526279441627 0.0008459351448950325
endloop
endfacet
facet normal 0.7071067811865476 -0.7071067811865476 0.0
outer loop
vertex 274.2221825406948 129.77781745930506 0.0008459351448950325
vertex 274.45 129.9526279441627 1.9999999999999998
vertex 274.2221825406948 129.77781745930506 1.9999999999999998
endloop
endfacet
facet normal 0.8660254037844274 -0.5000000000000195 0.0
outer loop
vertex 274.0473720558371 129.54999999999984 0.0008459351448950325
vertex 273.93748159108196 129.2847009496126 1.9999999999999998
vertex 273.93748159108196 129.2847009496126 0.0008459351448950325
endloop
endfacet
facet normal 0.9659258262890635 -0.25881904510253895 0.0
outer loop
vertex 273.93748159108196 129.2847009496126 1.9999999999999998
vertex 274.0473720558371 129.54999999999984 0.0008459351448950325
vertex 274.0473720558371 129.54999999999984 1.9999999999999998
endloop
endfacet
facet normal 0.25881904510253895 -0.9659258262890635 0.0
outer loop
vertex 274.7152990503872 130.06251840891784 1.9999999999999998
vertex 274.45 129.9526279441627 0.0008459351448950325
vertex 274.7152990503872 130.06251840891784 0.0008459351448950325
endloop
endfacet
facet normal 0.5000000000000195 -0.8660254037844274 0.0
outer loop
vertex 274.45 129.9526279441627 0.0008459351448950325
vertex 274.7152990503872 130.06251840891784 1.9999999999999998
vertex 274.45 129.9526279441627 1.9999999999999998
endloop
endfacet
facet normal 0.5000000000000195 0.8660254037844274 0.0
outer loop
vertex 274.45 128.04737205583695 1.9999999999999998
vertex 274.7152990503872 127.93748159108182 0.0008459351448950325
vertex 274.45 128.04737205583695 0.0008459351448950325
endloop
endfacet
facet normal 0.25881904510253895 0.9659258262890635 0.0
outer loop
vertex 274.7152990503872 127.93748159108182 0.0008459351448950325
vertex 274.45 128.04737205583695 1.9999999999999998
vertex 274.7152990503872 127.93748159108182 1.9999999999999998
endloop
endfacet
facet normal 0.25881904510253895 0.9659258262890635 0.0
outer loop
vertex 274.7152990503872 127.93748159108182 1.9999999999999998
vertex 275.0 127.8999999999998 0.0008459351448950325
vertex 274.7152990503872 127.93748159108182 0.0008459351448950325
endloop
endfacet
facet normal 0.0 1.0 0.0
outer loop
vertex 275.0 127.8999999999998 0.0008459351448950325
vertex 274.7152990503872 127.93748159108182 1.9999999999999998
vertex 275.0 127.8999999999998 1.9999999999999998
endloop
endfacet
facet normal -0.25881904510253895 0.9659258262890635 0.0
outer loop
vertex 275.2847009496128 127.93748159108182 1.9999999999999998
vertex 275.55 128.04737205583695 0.0008459351448950325
vertex 275.2847009496128 127.93748159108182 0.0008459351448950325
endloop
endfacet
facet normal -0.5000000000000195 0.8660254037844274 0.0
outer loop
vertex 275.55 128.04737205583695 0.0008459351448950325
vertex 275.2847009496128 127.93748159108182 1.9999999999999998
vertex 275.55 128.04737205583695 1.9999999999999998
endloop
endfacet
facet normal -0.9659258262890635 -0.25881904510253895 0.0
outer loop
vertex 276.062518408918 129.2847009496126 1.9999999999999998
vertex 276.1 128.99999999999983 0.0008459351448950325
vertex 276.1 128.99999999999983 1.9999999999999998
endloop
endfacet
facet normal -1.0 0.0 0.0
outer loop
vertex 276.1 128.99999999999983 0.0008459351448950325
vertex 276.062518408918 129.2847009496126 1.9999999999999998
vertex 276.062518408918 129.2847009496126 0.0008459351448950325
endloop
endfacet
facet normal 0.9659258262890635 -0.25881904510253895 0.0
outer loop
vertex 273.93748159108196 129.2847009496126 0.0008459351448950325
vertex 273.9 128.99999999999983 1.9999999999999998
vertex 273.9 128.99999999999983 0.0008459351448950325
endloop
endfacet
facet normal 1.0 0.0 0.0
outer loop
vertex 273.9 128.99999999999983 1.9999999999999998
vertex 273.93748159108196 129.2847009496126 0.0008459351448950325
vertex 273.93748159108196 129.2847009496126 1.9999999999999998
endloop
endfacet
facet normal 1.0 0.0 0.0
outer loop
vertex 273.9 128.99999999999983 0.0008459351448950325
vertex 273.93748159108196 128.71529905038705 1.9999999999999998
vertex 273.93748159108196 128.71529905038705 0.0008459351448950325
endloop
endfacet
facet normal 0.9659258262890635 0.25881904510253895 0.0
outer loop
vertex 273.93748159108196 128.71529905038705 1.9999999999999998
vertex 273.9 128.99999999999983 0.0008459351448950325
vertex 273.9 128.99999999999983 1.9999999999999998
endloop
endfacet
facet normal 0.7071067811865476 0.7071067811865476 0.0
outer loop
vertex 274.2221825406948 128.2221825406946 1.9999999999999998
vertex 274.45 128.04737205583695 0.0008459351448950325
vertex 274.2221825406948 128.2221825406946 0.0008459351448950325
endloop
endfacet
facet normal 0.5000000000000195 0.8660254037844274 0.0
outer loop
vertex 274.45 128.04737205583695 0.0008459351448950325
vertex 274.2221825406948 128.2221825406946 1.9999999999999998
vertex 274.45 128.04737205583695 1.9999999999999998
endloop
endfacet
facet normal -0.25881904510253895 -0.9659258262890635 0.0
outer loop
vertex 275.2847009496128 130.06251840891784 1.9999999999999998
vertex 275.0 130.09999999999985 0.0008459351448950325
vertex 275.2847009496128 130.06251840891784 0.0008459351448950325
endloop
endfacet
facet normal 0.0 -1.0 0.0
outer loop
vertex 275.0 130.09999999999985 0.0008459351448950325
vertex 275.2847009496128 130.06251840891784 1.9999999999999998
vertex 275.0 130.09999999999985 1.9999999999999998
endloop
endfacet
facet normal 0.8660254037844274 0.5000000000000195 0.0
outer loop
vertex 274.0473720558371 128.44999999999982 0.0008459351448950325
vertex 274.2221825406948 128.2221825406946 1.9999999999999998
vertex 274.2221825406948 128.2221825406946 0.0008459351448950325
endloop
endfacet
facet normal 0.7071067811865476 0.7071067811865476 0.0
outer loop
vertex 274.2221825406948 128.2221825406946 1.9999999999999998
vertex 274.0473720558371 128.44999999999982 0.0008459351448950325
vertex 274.0473720558371 128.44999999999982 1.9999999999999998
endloop
endfacet
facet normal -0.8660254037844274 0.5000000000000195 0.0
outer loop
vertex 275.9526279441629 128.44999999999982 1.9999999999999998
vertex 275.7778174593052 128.2221825406946 0.0008459351448950325
vertex 275.7778174593052 128.2221825406946 1.9999999999999998
endloop
endfacet
facet normal -0.7071067811865476 0.7071067811865476 0.0
outer loop
vertex 275.7778174593052 128.2221825406946 0.0008459351448950325
vertex 275.9526279441629 128.44999999999982 1.9999999999999998
vertex 275.9526279441629 128.44999999999982 0.0008459351448950325
endloop
endfacet
facet normal -0.7071067811865476 -0.7071067811865476 0.0
outer loop
vertex 275.7778174593052 129.77781745930506 1.9999999999999998
vertex 275.55 129.9526279441627 0.0008459351448950325
vertex 275.7778174593052 129.77781745930506 0.0008459351448950325
endloop
endfacet
facet normal -0.5000000000000195 -0.8660254037844274 0.0
outer loop
vertex 275.55 129.9526279441627 0.0008459351448950325
vertex 275.7778174593052 129.77781745930506 1.9999999999999998
vertex 275.55 129.9526279441627 1.9999999999999998
endloop
endfacet
facet normal 0.0 1.0 0.0
outer loop
vertex 275.0 127.8999999999998 1.9999999999999998
vertex 275.2847009496128 127.93748159108182 0.0008459351448950325
vertex 275.0 127.8999999999998 0.0008459351448950325
endloop
endfacet
facet normal -0.25881904510253895 0.9659258262890635 0.0
outer loop
vertex 275.2847009496128 127.93748159108182 0.0008459351448950325
vertex 275.0 127.8999999999998 1.9999999999999998
vertex 275.2847009496128 127.93748159108182 1.9999999999999998
endloop
endfacet
endsolid Pantalla
