solid Pantalla
facet normal -0.5000000000000152 -0.86602540378443 0.0
outer loop
vertex 275.55 139.9526279441627 1.9999999999999998
vertex 275.2847009496128 140.0625184089178 0.0001707886678121301
vertex 275.55 139.9526279441627 0.0001707886678121301
endloop
endfacet
facet normal -0.25881904510250386 -0.9659258262890729 0.0
outer loop
vertex 275.2847009496128 140.0625184089178 0.0001707886678121301
vertex 275.55 139.9526279441627 1.9999999999999998
vertex 275.2847009496128 140.0625184089178 1.9999999999999998
endloop
endfacet
facet normal 0.8660254037844637 -0.49999999999995676 0.0
outer loop
vertex 274.0473720558371 139.5499999999998 0.0001707886678121301
vertex 273.937481591082 139.2847009496126 1.9999999999999998
vertex 273.937481591082 139.2847009496126 0.0001707886678121301
endloop
endfacet
facet normal 0.9659258262890609 -0.25881904510254905 0.0
outer loop
vertex 273.937481591082 139.2847009496126 1.9999999999999998
vertex 274.0473720558371 139.5499999999998 0.0001707886678121301
vertex 274.0473720558371 139.5499999999998 1.9999999999999998
endloop
endfacet
facet normal -0.2754662484226689 -0.9613107434162926 -2.3923948949170184e-05
outer loop
vertex 274.1481348729421 126.02718732293116 3.0
vertex 273.40778167486997 126.34900045564243 0.0008459351448916837
vertex 274.1481756128999 126.02722540133266 0.0008459351448916837
endloop
endfacet
facet normal -0.5148844473390453 -0.8572595903044751 -2.6821067198686973e-05
outer loop
vertex 273.40778167486997 126.34900045564243 0.0008459351448916837
vertex 274.1481348729421 126.02718732293116 3.0
vertex 273.40774093491217 126.34896237724092 3.0
endloop
endfacet
facet normal -0.514885175024564 -0.8572591532439617 -2.6821073703093914e-05
outer loop
vertex 273.40774093491217 126.34896237724092 3.0
vertex 272.7758975607932 126.85143934289638 0.0008459351448916837
vertex 273.40778167486997 126.34900045564243 0.0008459351448916837
endloop
endfacet
facet normal -0.7192155709821828 -0.694786990147987 -2.78903917097578e-05
outer loop
vertex 272.7758975607932 126.85143934289638 0.0008459351448916837
vertex 273.40774093491217 126.34896237724092 3.0
vertex 272.77585682083543 126.85140126449487 3.0
endloop
endfacet
facet normal 0.484964677429029 -0.8745337395436859 -6.774568618307747e-06
outer loop
vertex 276.4997363951536 126.29554438884824 3.0
vertex 275.7487102378619 125.99957421583846 0.0008459351448916837
vertex 276.4997771351114 126.29558246724976 0.0008459351448916837
endloop
endfacet
facet normal 0.24209668398103312 -0.9702521298208345 -1.354705070648654e-05
outer loop
vertex 275.7487102378619 125.99957421583846 0.0008459351448916837
vertex 276.4997363951536 126.29554438884824 3.0
vertex 275.74866949790413 125.99953613743696 3.0
endloop
endfacet
facet normal 0.24209406315298096 -0.9702527837643941 -1.3547116571119923e-05
outer loop
vertex 275.74866949790413 125.99953613743696 3.0
vertex 274.94662275156514 125.90804261815988 0.0008459351448916837
vertex 275.7487102378619 125.99957421583846 0.0008459351448916837
endloop
endfacet
facet normal -0.01727253042274539 -0.9998508185307321 -1.9396405589827825e-05
outer loop
vertex 274.94662275156514 125.90804261815988 0.0008459351448916837
vertex 275.74866949790413 125.99953613743696 3.0
vertex 274.94658201160735 125.90800453975838 3.0
endloop
endfacet
facet normal 0.5949665010287231 -0.8037504977562977 -3.1846590267352127e-06
outer loop
vertex 277.11680019660423 126.75231834032377 3.0
vertex 276.4997771351114 126.29558246724976 0.0008459351448916837
vertex 277.116840936562 126.75235641872528 0.0008459351448916837
endloop
endfacet
facet normal 0.48496729889177764 -0.8745322858303857 -6.774487507320191e-06
outer loop
vertex 276.4997771351114 126.29558246724976 0.0008459351448916837
vertex 277.11680019660423 126.75231834032377 3.0
vertex 276.4997363951536 126.29554438884824 3.0
endloop
endfacet
facet normal -0.017274750816263933 -0.9998507801707283 -1.93964501076827e-05
outer loop
vertex 274.94658201160735 125.90800453975838 3.0
vertex 274.1481756128999 126.02722540133266 0.0008459351448916837
vertex 274.94662275156514 125.90804261815988 0.0008459351448916837
endloop
endfacet
facet normal -0.27546472096741054 -0.9613111811115027 -2.3923926158666155e-05
outer loop
vertex 274.1481756128999 126.02722540133266 0.0008459351448916837
vertex 274.94658201160735 125.90800453975838 3.0
vertex 274.1481348729421 126.02718732293116 3.0
endloop
endfacet
facet normal -0.7071067811865527 -0.7071067811865424 0.0
outer loop
vertex 275.7778174593052 139.77781745930503 1.9999999999999998
vertex 275.55 139.9526279441627 0.0001707886678121301
vertex 275.7778174593052 139.77781745930503 0.0001707886678121301
endloop
endfacet
facet normal -0.5000000000000152 -0.86602540378443 0.0
outer loop
vertex 275.55 139.9526279441627 0.0001707886678121301
vertex 275.7778174593052 139.77781745930503 1.9999999999999998
vertex 275.55 139.9526279441627 1.9999999999999998
endloop
endfacet
facet normal -0.9935393938187238 -0.11348776360287678 2.1041400833578193e-05
outer loop
vertex 271.90800453975856 129.0534179883925 3.0
vertex 271.9995768773949 128.25136858049723 0.0008459351448916837
vertex 271.99953613743713 128.2513305020957 3.0
endloop
endfacet
facet normal -0.9702396438222771 -0.24214671905584612 -2.4719133590727295e-06
outer loop
vertex 271.9995768773949 128.25136858049723 0.0008459351448916837
vertex 271.90800453975856 129.0534179883925 3.0
vertex 271.9078623477515 129.05352676864456 0.0008434057155703389
endloop
endfacet
facet normal -0.7071067811865527 -0.7071067811865424 0.0
outer loop
vertex 275.7778174593052 139.77781745930503 1.9999999999999998
vertex 275.9526279441629 139.54999999999984 0.0001707886678121301
vertex 275.9526279441629 139.54999999999984 1.9999999999999998
endloop
endfacet
facet normal -0.8660254037844594 -0.49999999999996436 0.0
outer loop
vertex 275.9526279441629 139.54999999999984 0.0001707886678121301
vertex 275.7778174593052 139.77781745930503 1.9999999999999998
vertex 275.7778174593052 139.77781745930503 0.0001707886678121301
endloop
endfacet
facet normal 0.0 1.0 0.0
outer loop
vertex 275.0 137.89999999999984 1.9999999999999998
vertex 275.2847009496128 137.93748159108185 0.0001707886678121301
vertex 275.0 137.89999999999984 0.0001707886678121301
endloop
endfacet
facet normal -0.25881904510250386 0.9659258262890729 0.0
outer loop
vertex 275.2847009496128 137.93748159108185 0.0001707886678121301
vertex 275.0 137.89999999999984 1.9999999999999998
vertex 275.2847009496128 137.93748159108185 1.9999999999999998
endloop
endfacet
facet normal -0.9659258262890609 0.25881904510254905 0.0
outer loop
vertex 276.0625184089179 138.71529905038707 1.9999999999999998
vertex 275.9526279441629 138.44999999999985 0.0001707886678121301
vertex 275.9526279441629 138.44999999999985 1.9999999999999998
endloop
endfacet
facet normal -0.8660254037844637 0.49999999999995676 0.0
outer loop
vertex 275.9526279441629 138.44999999999985 0.0001707886678121301
vertex 276.0625184089179 138.71529905038707 1.9999999999999998
vertex 276.0625184089179 138.71529905038707 0.0001707886678121301
endloop
endfacet
facet normal 0.0 -1.0 0.0
outer loop
vertex 275.0 140.09999999999982 1.9999999999999998
vertex 274.7152990503872 140.0625184089178 0.0001707886678121301
vertex 275.0 140.09999999999982 0.0001707886678121301
endloop
endfacet
facet normal 0.25881904510250386 -0.9659258262890729 0.0
outer loop
vertex 274.7152990503872 140.0625184089178 0.0001707886678121301
vertex 275.0 140.09999999999982 1.9999999999999998
vertex 274.7152990503872 140.0625184089178 1.9999999999999998
endloop
endfacet
facet normal -0.8745328304137321 -0.4849663161461377 -2.7059031430674106e-05
outer loop
vertex 272.2955443888484 127.50026360484623 3.0
vertex 272.7758975607932 126.85143934289638 0.0008459351448916837
vertex 272.77585682083543 126.85140126449487 3.0
endloop
endfacet
facet normal -0.7192155709821828 -0.694786990147987 -2.78903917097578e-05
outer loop
vertex 272.7758975607932 126.85143934289638 0.0008459351448916837
vertex 272.2955443888484 127.50026360484623 3.0
vertex 272.2955851288062 127.50030168324774 0.0008459351448916837
endloop
endfacet
facet normal -0.9702392488318348 -0.24214830170811708 -2.472207065011544e-06
outer loop
vertex 271.99953613743713 128.2513305020957 3.0
vertex 272.2955851288062 127.50030168324774 0.0008459351448916837
vertex 272.2955443888484 127.50026360484623 3.0
endloop
endfacet
facet normal -0.8745331943669835 -0.48496565983385814 -2.7059026346582494e-05
outer loop
vertex 272.2955851288062 127.50030168324774 0.0008459351448916837
vertex 271.99953613743713 128.2513305020957 3.0
vertex 271.9995768773949 128.25136858049723 0.0008459351448916837
endloop
endfacet
facet normal 0.25881904510250386 -0.9659258262890729 0.0
outer loop
vertex 274.7152990503872 140.0625184089178 1.9999999999999998
vertex 274.45 139.9526279441627 0.0001707886678121301
vertex 274.7152990503872 140.0625184089178 0.0001707886678121301
endloop
endfacet
facet normal 0.5000000000000152 -0.86602540378443 0.0
outer loop
vertex 274.45 139.9526279441627 0.0001707886678121301
vertex 274.7152990503872 140.0625184089178 1.9999999999999998
vertex 274.45 139.9526279441627 1.9999999999999998
endloop
endfacet
facet normal 0.25881904510250386 0.9659258262890729 0.0
outer loop
vertex 274.7152990503872 137.93748159108185 1.9999999999999998
vertex 275.0 137.89999999999984 0.0001707886678121301
vertex 274.7152990503872 137.93748159108185 0.0001707886678121301
endloop
endfacet
facet normal 0.0 1.0 0.0
outer loop
vertex 275.0 137.89999999999984 0.0001707886678121301
vertex 274.7152990503872 137.93748159108185 1.9999999999999998
vertex 275.0 137.89999999999984 1.9999999999999998
endloop
endfacet
facet normal 0.5000000000000152 0.86602540378443 0.0
outer loop
vertex 274.45 138.04737205583695 1.9999999999999998
vertex 274.7152990503872 137.93748159108185 0.0001707886678121301
vertex 274.45 138.04737205583695 0.0001707886678121301
endloop
endfacet
facet normal 0.25881904510250386 0.9659258262890729 0.0
outer loop
vertex 274.7152990503872 137.93748159108185 0.0001707886678121301
vertex 274.45 138.04737205583695 1.9999999999999998
vertex 274.7152990503872 137.93748159108185 1.9999999999999998
endloop
endfacet
facet normal -0.9999968741700103 -0.0025000782758668404 3.547989765094513e-05
outer loop
vertex 271.90123769433455 131.75231834032377 3.0
vertex 271.9078623477515 129.05352676864456 0.0008434057155703389
vertex 271.90800453975856 129.0534179883925 3.0
endloop
endfacet
facet normal -0.9999968741700103 -0.0025000782758668404 3.547989765094513e-05
outer loop
vertex 271.9078623477515 129.05352676864456 0.0008434057155703389
vertex 271.90123769433455 131.75231834032377 3.0
vertex 271.90123769433455 131.75231834032377 1.9999999999999998
endloop
endfacet
facet normal -0.9999968741700103 -0.0025000782758668404 3.547989765094513e-05
outer loop
vertex 271.9078623477515 129.05352676864456 0.0008434057155703389
vertex 271.90123769433455 131.75231834032377 1.9999999999999998
vertex 271.8831998033957 138.94658201160718 0.0
endloop
endfacet
facet normal -0.9999968741700103 -0.0025000782758668404 3.547989765094513e-05
outer loop
vertex 271.8831998033957 138.94658201160718 0.0
vertex 271.90123769433455 131.75231834032377 1.9999999999999998
vertex 271.8831998033957 138.94658201160718 1.9999999999999998
endloop
endfacet
facet normal -0.25881904510250386 -0.9659258262890729 0.0
outer loop
vertex 275.2847009496128 140.0625184089178 1.9999999999999998
vertex 275.0 140.09999999999982 0.0001707886678121301
vertex 275.2847009496128 140.0625184089178 0.0001707886678121301
endloop
endfacet
facet normal 0.0 -1.0 0.0
outer loop
vertex 275.0 140.09999999999982 0.0001707886678121301
vertex 275.2847009496128 140.0625184089178 1.9999999999999998
vertex 275.0 140.09999999999982 1.9999999999999998
endloop
endfacet
facet normal 0.8660254037844594 0.49999999999996436 0.0
outer loop
vertex 274.0473720558371 138.44999999999982 0.0001707886678121301
vertex 274.2221825406948 138.22218254069463 1.9999999999999998
vertex 274.2221825406948 138.22218254069463 0.0001707886678121301
endloop
endfacet
facet normal 0.7071067811865527 0.7071067811865424 0.0
outer loop
vertex 274.2221825406948 138.22218254069463 1.9999999999999998
vertex 274.0473720558371 138.44999999999982 0.0001707886678121301
vertex 274.0473720558371 138.44999999999982 1.9999999999999998
endloop
endfacet
facet normal -0.017136210651638364 0.9998531643618991 0.0
outer loop
vertex 274.9465820116074 142.11680019660415 1.9999999999999998
vertex 275.7550894360836 142.0244233980298 0.0
vertex 274.9465820116074 142.11680019660415 0.0
endloop
endfacet
facet normal 0.24222873280970614 0.9702191716315464 0.0
outer loop
vertex 275.7550894360836 142.0244233980298 0.0
vertex 274.9465820116074 142.11680019660415 1.9999999999999998
vertex 275.7550894360836 142.0244233980298 1.9999999999999998
endloop
endfacet
facet normal -0.5000000000000152 0.86602540378443 0.0
outer loop
vertex 275.55 138.04737205583695 1.9999999999999998
vertex 275.7778174593052 138.22218254069463 0.0001707886678121301
vertex 275.55 138.04737205583695 0.0001707886678121301
endloop
endfacet
facet normal -0.7071067811865697 0.7071067811865256 0.0
outer loop
vertex 275.7778174593052 138.22218254069463 0.0001707886678121301
vertex 275.55 138.04737205583695 1.9999999999999998
vertex 275.7778174593052 138.22218254069463 1.9999999999999998
endloop
endfacet
facet normal -0.9659258262890648 -0.25881904510253445 0.0
outer loop
vertex 276.0625184089179 139.2847009496126 1.9999999999999998
vertex 276.1 138.99999999999983 0.0001707886678121301
vertex 276.1 138.99999999999983 1.9999999999999998
endloop
endfacet
facet normal -1.0 0.0 0.0
outer loop
vertex 276.1 138.99999999999983 0.0001707886678121301
vertex 276.0625184089179 139.2847009496126 1.9999999999999998
vertex 276.0625184089179 139.2847009496126 0.0001707886678121301
endloop
endfacet
facet normal -0.5147669759299491 0.8573301350657957 0.0
outer loop
vertex 273.39533856673086 141.67251915458314 1.9999999999999998
vertex 274.1417149347627 141.99677221253572 0.0
vertex 273.39533856673086 141.67251915458314 0.0
endloop
endfacet
facet normal -0.27533334967609546 0.9613488162764549 0.0
outer loop
vertex 274.1417149347627 141.99677221253572 0.0
vertex 273.39533856673086 141.67251915458314 1.9999999999999998
vertex 274.1417149347627 141.99677221253572 1.9999999999999998
endloop
endfacet
facet normal 0.24222873280970614 0.9702191716315464 0.0
outer loop
vertex 275.7550894360836 142.0244233980298 1.9999999999999998
vertex 276.51213876333503 141.7259371429758 0.0
vertex 275.7550894360836 142.0244233980298 0.0
endloop
endfacet
facet normal 0.4850861884319649 0.8744663457175172 0.0
outer loop
vertex 276.51213876333503 141.7259371429758 0.0
vertex 275.7550894360836 142.0244233980298 1.9999999999999998
vertex 276.51213876333503 141.7259371429758 1.9999999999999998
endloop
endfacet
facet normal -0.7191200834667524 0.6948858219555003 0.0
outer loop
vertex 272.7583172235478 141.16613833279246 1.9999999999999998
vertex 272.2740628570241 140.51213876333497 0.0
vertex 272.2740628570241 140.51213876333497 1.9999999999999998
endloop
endfacet
facet normal -0.874466345717482 0.4850861884320281 0.0
outer loop
vertex 272.2740628570241 140.51213876333497 0.0
vertex 272.7583172235478 141.16613833279246 1.9999999999999998
vertex 272.7583172235478 141.16613833279246 0.0
endloop
endfacet
facet normal -0.27533334967609546 0.9613488162764549 0.0
outer loop
vertex 274.1417149347627 141.99677221253572 1.9999999999999998
vertex 274.9465820116074 142.11680019660415 0.0
vertex 274.1417149347627 141.99677221253572 0.0
endloop
endfacet
facet normal -0.017136210651638364 0.9998531643618991 0.0
outer loop
vertex 274.9465820116074 142.11680019660415 0.0
vertex 274.1417149347627 141.99677221253572 1.9999999999999998
vertex 274.9465820116074 142.11680019660415 1.9999999999999998
endloop
endfacet
facet normal 0.4850861884319649 0.8744663457175172 0.0
outer loop
vertex 276.51213876333503 141.7259371429758 1.9999999999999998
vertex 277.11680019660423 141.27821522846148 0.0
vertex 276.51213876333503 141.7259371429758 0.0
endloop
endfacet
facet normal 0.5950769711753817 0.803668711831395 0.0
outer loop
vertex 277.11680019660423 141.27821522846148 0.0
vertex 276.51213876333503 141.7259371429758 1.9999999999999998
vertex 277.11680019660423 141.27821522846148 1.9999999999999998
endloop
endfacet
facet normal -1.7502798377947405e-05 -2.374423479400748e-05 -0.9999999995649318
outer loop
vertex 271.97557660197003 139.75508943608352 0.0
vertex 271.9078623477515 129.05352676864456 0.0008434057155703389
vertex 271.8831998033957 138.94658201160718 0.0
endloop
endfacet
facet normal -1.7502798377947405e-05 -2.374423479400748e-05 -0.9999999995649318
outer loop
vertex 271.9078623477515 129.05352676864456 0.0008434057155703389
vertex 271.97557660197003 139.75508943608352 0.0
vertex 271.9995768773949 128.25136858049723 0.0008459351448916837
endloop
endfacet
facet normal -1.7502798377947405e-05 -2.374423479400748e-05 -0.9999999995649318
outer loop
vertex 271.9995768773949 128.25136858049723 0.0008459351448916837
vertex 271.97557660197003 139.75508943608352 0.0
vertex 272.2740628570241 140.51213876333497 0.0
endloop
endfacet
facet normal -1.7502798377947405e-05 -2.374423479400748e-05 -0.9999999995649318
outer loop
vertex 271.9995768773949 128.25136858049723 0.0008459351448916837
vertex 272.2740628570241 140.51213876333497 0.0
vertex 272.2955851288062 127.50030168324774 0.0008459351448916837
endloop
endfacet
facet normal -1.7502798377947405e-05 -2.374423479400748e-05 -0.9999999995649318
outer loop
vertex 272.2955851288062 127.50030168324774 0.0008459351448916837
vertex 272.2740628570241 140.51213876333497 0.0
vertex 272.7583172235478 141.16613833279246 0.0
endloop
endfacet
facet normal -1.7502798377947405e-05 -2.374423479400748e-05 -0.9999999995649318
outer loop
vertex 272.2955851288062 127.50030168324774 0.0008459351448916837
vertex 272.7583172235478 141.16613833279246 0.0
vertex 272.7758975607932 126.85143934289638 0.0008459351448916837
endloop
endfacet
facet normal -1.7502798377947405e-05 -2.374423479400748e-05 -0.9999999995649318
outer loop
vertex 272.7758975607932 126.85143934289638 0.0008459351448916837
vertex 272.7583172235478 141.16613833279246 0.0
vertex 273.39533856673086 141.67251915458314 0.0
endloop
endfacet
facet normal -1.7502798377947405e-05 -2.374423479400748e-05 -0.9999999995649318
outer loop
vertex 272.7758975607932 126.85143934289638 0.0008459351448916837
vertex 273.39533856673086 141.67251915458314 0.0
vertex 273.40778167486997 126.34900045564243 0.0008459351448916837
endloop
endfacet
facet normal -1.7502798377947405e-05 -2.374423479400748e-05 -0.9999999995649318
outer loop
vertex 273.40778167486997 126.34900045564243 0.0008459351448916837
vertex 273.39533856673086 141.67251915458314 0.0
vertex 273.9 138.99999999999983 0.0001707886678121301
endloop
endfacet
facet normal -1.7502798377947405e-05 -2.374423479400748e-05 -0.9999999995649318
outer loop
vertex 273.9 138.99999999999983 0.0001707886678121301
vertex 273.39533856673086 141.67251915458314 0.0
vertex 274.1417149347627 141.99677221253572 0.0
endloop
endfacet
facet normal -1.7502798377947405e-05 -2.374423479400748e-05 -0.9999999995649318
outer loop
vertex 273.9 138.99999999999983 0.0001707886678121301
vertex 274.1417149347627 141.99677221253572 0.0
vertex 273.937481591082 139.2847009496126 0.0001707886678121301
endloop
endfacet
facet normal -1.7502798377947405e-05 -2.374423479400748e-05 -0.9999999995649318
outer loop
vertex 273.937481591082 139.2847009496126 0.0001707886678121301
vertex 274.1417149347627 141.99677221253572 0.0
vertex 274.0473720558371 139.5499999999998 0.0001707886678121301
endloop
endfacet
facet normal -1.7502798377947405e-05 -2.374423479400748e-05 -0.9999999995649318
outer loop
vertex 274.0473720558371 139.5499999999998 0.0001707886678121301
vertex 274.1417149347627 141.99677221253572 0.0
vertex 274.2221825406948 139.77781745930503 0.0001707886678121301
endloop
endfacet
facet normal -1.7502798377947405e-05 -2.374423479400748e-05 -0.9999999995649318
outer loop
vertex 274.2221825406948 139.77781745930503 0.0001707886678121301
vertex 274.1417149347627 141.99677221253572 0.0
vertex 274.9465820116074 142.11680019660415 0.0
endloop
endfacet
facet normal -1.7502798377947405e-05 -2.374423479400748e-05 -0.9999999995649318
outer loop
vertex 274.2221825406948 139.77781745930503 0.0001707886678121301
vertex 274.9465820116074 142.11680019660415 0.0
vertex 274.45 139.9526279441627 0.0001707886678121301
endloop
endfacet
facet normal -1.7502798377947405e-05 -2.374423479400748e-05 -0.9999999995649318
outer loop
vertex 274.45 139.9526279441627 0.0001707886678121301
vertex 274.9465820116074 142.11680019660415 0.0
vertex 274.7152990503872 140.0625184089178 0.0001707886678121301
endloop
endfacet
facet normal -1.7502798377947405e-05 -2.374423479400748e-05 -0.9999999995649318
outer loop
vertex 274.7152990503872 140.0625184089178 0.0001707886678121301
vertex 274.9465820116074 142.11680019660415 0.0
vertex 275.0 140.09999999999982 0.0001707886678121301
endloop
endfacet
facet normal -1.7502798377947405e-05 -2.374423479400748e-05 -0.9999999995649318
outer loop
vertex 275.0 140.09999999999982 0.0001707886678121301
vertex 274.9465820116074 142.11680019660415 0.0
vertex 275.7550894360836 142.0244233980298 0.0
endloop
endfacet
facet normal -1.7502798377947405e-05 -2.374423479400748e-05 -0.9999999995649318
outer loop
vertex 275.0 140.09999999999982 0.0001707886678121301
vertex 275.7550894360836 142.0244233980298 0.0
vertex 275.2847009496128 140.0625184089178 0.0001707886678121301
endloop
endfacet
facet normal -1.7502798377947405e-05 -2.374423479400748e-05 -0.9999999995649318
outer loop
vertex 275.2847009496128 140.0625184089178 0.0001707886678121301
vertex 275.7550894360836 142.0244233980298 0.0
vertex 275.55 139.9526279441627 0.0001707886678121301
endloop
endfacet
facet normal -1.7502798377947405e-05 -2.374423479400748e-05 -0.9999999995649318
outer loop
vertex 275.55 139.9526279441627 0.0001707886678121301
vertex 275.7550894360836 142.0244233980298 0.0
vertex 275.7778174593052 139.77781745930503 0.0001707886678121301
endloop
endfacet
facet normal -1.7502798377947405e-05 -2.374423479400748e-05 -0.9999999995649318
outer loop
vertex 275.7778174593052 139.77781745930503 0.0001707886678121301
vertex 275.7550894360836 142.0244233980298 0.0
vertex 276.51213876333503 141.7259371429758 0.0
endloop
endfacet
facet normal -1.7502798377947405e-05 -2.374423479400748e-05 -0.9999999995649318
outer loop
vertex 275.7778174593052 139.77781745930503 0.0001707886678121301
vertex 276.51213876333503 141.7259371429758 0.0
vertex 275.9526279441629 139.54999999999984 0.0001707886678121301
endloop
endfacet
facet normal -1.7502798377947405e-05 -2.374423479400748e-05 -0.9999999995649318
outer loop
vertex 275.9526279441629 139.54999999999984 0.0001707886678121301
vertex 276.51213876333503 141.7259371429758 0.0
vertex 276.0625184089179 139.2847009496126 0.0001707886678121301
endloop
endfacet
facet normal -1.7502798377947405e-05 -2.374423479400748e-05 -0.9999999995649318
outer loop
vertex 276.0625184089179 139.2847009496126 0.0001707886678121301
vertex 276.51213876333503 141.7259371429758 0.0
vertex 276.1 138.99999999999983 0.0001707886678121301
endloop
endfacet
facet normal -1.7502798377947405e-05 -2.374423479400748e-05 -0.9999999995649318
outer loop
vertex 276.1 138.99999999999983 0.0001707886678121301
vertex 276.51213876333503 141.7259371429758 0.0
vertex 276.1 128.99999999999983 0.0008459351448950325
endloop
endfacet
facet normal -1.7502798377947405e-05 -2.374423479400748e-05 -0.9999999995649318
outer loop
vertex 276.1 128.99999999999983 0.0008459351448950325
vertex 276.51213876333503 141.7259371429758 0.0
vertex 276.4997771351114 126.29558246724976 0.0008459351448916837
endloop
endfacet
facet normal -1.7502798377947405e-05 -2.374423479400748e-05 -0.9999999995649318
outer loop
vertex 276.4997771351114 126.29558246724976 0.0008459351448916837
vertex 276.51213876333503 141.7259371429758 0.0
vertex 277.116840936562 126.75235641872528 0.0008459351448916837
endloop
endfacet
facet normal -1.7502798377947405e-05 -2.374423479400748e-05 -0.9999999995649318
outer loop
vertex 277.116840936562 126.75235641872528 0.0008459351448916837
vertex 276.51213876333503 141.7259371429758 0.0
vertex 277.11680019660423 141.27821522846148 0.0
endloop
endfacet
facet normal -1.7502798377947405e-05 -2.374423479400748e-05 -0.9999999995649318
outer loop
vertex 273.40778167486997 126.34900045564243 0.0008459351448916837
vertex 273.9 128.99999999999983 0.0008459351448950325
vertex 274.1481756128999 126.02722540133266 0.0008459351448916837
endloop
endfacet
facet normal -1.7502798377947405e-05 -2.374423479400748e-05 -0.9999999995649318
outer loop
vertex 273.9 128.99999999999983 0.0008459351448950325
vertex 273.40778167486997 126.34900045564243 0.0008459351448916837
vertex 273.9 138.99999999999983 0.0001707886678121301
endloop
endfacet
facet normal -1.7502798377947405e-05 -2.374423479400748e-05 -0.9999999995649318
outer loop
vertex 274.1481756128999 126.02722540133266 0.0008459351448916837
vertex 273.9 128.99999999999983 0.0008459351448950325
vertex 273.93748159108196 128.71529905038705 0.0008459351448950325
endloop
endfacet
facet normal -1.7502798377947405e-05 -2.374423479400748e-05 -0.9999999995649318
outer loop
vertex 274.1481756128999 126.02722540133266 0.0008459351448916837
vertex 273.93748159108196 128.71529905038705 0.0008459351448950325
vertex 274.0473720558371 128.44999999999982 0.0008459351448950325
endloop
endfacet
facet normal -1.7502798377947405e-05 -2.374423479400748e-05 -0.9999999995649318
outer loop
vertex 274.1481756128999 126.02722540133266 0.0008459351448916837
vertex 274.0473720558371 128.44999999999982 0.0008459351448950325
vertex 274.2221825406948 128.2221825406946 0.0008459351448950325
endloop
endfacet
facet normal -1.7502798377947405e-05 -2.374423479400748e-05 -0.9999999995649318
outer loop
vertex 274.1481756128999 126.02722540133266 0.0008459351448916837
vertex 274.2221825406948 128.2221825406946 0.0008459351448950325
vertex 274.94662275156514 125.90804261815988 0.0008459351448916837
endloop
endfacet
facet normal -1.7502798377947405e-05 -2.374423479400748e-05 -0.9999999995649318
outer loop
vertex 274.94662275156514 125.90804261815988 0.0008459351448916837
vertex 274.2221825406948 128.2221825406946 0.0008459351448950325
vertex 274.45 128.04737205583695 0.0008459351448950325
endloop
endfacet
facet normal -1.7502798377947405e-05 -2.374423479400748e-05 -0.9999999995649318
outer loop
vertex 274.94662275156514 125.90804261815988 0.0008459351448916837
vertex 274.45 128.04737205583695 0.0008459351448950325
vertex 274.7152990503872 127.93748159108182 0.0008459351448950325
endloop
endfacet
facet normal -1.7502798377947405e-05 -2.374423479400748e-05 -0.9999999995649318
outer loop
vertex 274.94662275156514 125.90804261815988 0.0008459351448916837
vertex 274.7152990503872 127.93748159108182 0.0008459351448950325
vertex 275.0 127.8999999999998 0.0008459351448950325
endloop
endfacet
facet normal -1.7502798377947405e-05 -2.374423479400748e-05 -0.9999999995649318
outer loop
vertex 274.94662275156514 125.90804261815988 0.0008459351448916837
vertex 275.0 127.8999999999998 0.0008459351448950325
vertex 275.7487102378619 125.99957421583846 0.0008459351448916837
endloop
endfacet
facet normal -1.7502798377947405e-05 -2.374423479400748e-05 -0.9999999995649318
outer loop
vertex 275.7487102378619 125.99957421583846 0.0008459351448916837
vertex 275.0 127.8999999999998 0.0008459351448950325
vertex 275.2847009496128 127.93748159108182 0.0008459351448950325
endloop
endfacet
facet normal -1.7502798377947405e-05 -2.374423479400748e-05 -0.9999999995649318
outer loop
vertex 275.7487102378619 125.99957421583846 0.0008459351448916837
vertex 275.2847009496128 127.93748159108182 0.0008459351448950325
vertex 275.55 128.04737205583695 0.0008459351448950325
endloop
endfacet
facet normal -1.7502798377947405e-05 -2.374423479400748e-05 -0.9999999995649318
outer loop
vertex 275.7487102378619 125.99957421583846 0.0008459351448916837
vertex 275.55 128.04737205583695 0.0008459351448950325
vertex 275.7778174593052 128.2221825406946 0.0008459351448950325
endloop
endfacet
facet normal -1.7502798377947405e-05 -2.374423479400748e-05 -0.9999999995649318
outer loop
vertex 275.7487102378619 125.99957421583846 0.0008459351448916837
vertex 275.7778174593052 128.2221825406946 0.0008459351448950325
vertex 276.4997771351114 126.29558246724976 0.0008459351448916837
endloop
endfacet
facet normal -1.7502798377947405e-05 -2.374423479400748e-05 -0.9999999995649318
outer loop
vertex 276.4997771351114 126.29558246724976 0.0008459351448916837
vertex 275.7778174593052 128.2221825406946 0.0008459351448950325
vertex 275.9526279441629 128.44999999999982 0.0008459351448950325
endloop
endfacet
facet normal -1.7502798377947405e-05 -2.374423479400748e-05 -0.9999999995649318
outer loop
vertex 276.4997771351114 126.29558246724976 0.0008459351448916837
vertex 275.9526279441629 128.44999999999982 0.0008459351448950325
vertex 276.062518408918 128.71529905038705 0.0008459351448950325
endloop
endfacet
facet normal -1.7502798377947405e-05 -2.374423479400748e-05 -0.9999999995649318
outer loop
vertex 276.4997771351114 126.29558246724976 0.0008459351448916837
vertex 276.062518408918 128.71529905038705 0.0008459351448950325
vertex 276.1 128.99999999999983 0.0008459351448950325
endloop
endfacet
facet normal -1.7502798377947405e-05 -2.374423479400748e-05 -0.9999999995649318
outer loop
vertex 273.937481591082 138.71529905038707 0.0001707886678121301
vertex 273.9 128.99999999999983 0.0008459351448950325
vertex 273.9 138.99999999999983 0.0001707886678121301
endloop
endfacet
facet normal -1.7502798377947405e-05 -2.374423479400748e-05 -0.9999999995649318
outer loop
vertex 273.9 128.99999999999983 0.0008459351448950325
vertex 273.937481591082 138.71529905038707 0.0001707886678121301
vertex 273.93748159108196 129.2847009496126 0.0008459351448950325
endloop
endfacet
facet normal -1.7502798377947405e-05 -2.374423479400748e-05 -0.9999999995649318
outer loop
vertex 273.93748159108196 129.2847009496126 0.0008459351448950325
vertex 273.937481591082 138.71529905038707 0.0001707886678121301
vertex 274.0473720558371 129.54999999999984 0.0008459351448950325
endloop
endfacet
facet normal -1.7502798377947405e-05 -2.374423479400748e-05 -0.9999999995649318
outer loop
vertex 274.0473720558371 129.54999999999984 0.0008459351448950325
vertex 273.937481591082 138.71529905038707 0.0001707886678121301
vertex 274.0473720558371 138.44999999999982 0.0001707886678121301
endloop
endfacet
facet normal -1.7502798377947405e-05 -2.374423479400748e-05 -0.9999999995649318
outer loop
vertex 274.0473720558371 129.54999999999984 0.0008459351448950325
vertex 274.0473720558371 138.44999999999982 0.0001707886678121301
vertex 274.2221825406948 138.22218254069463 0.0001707886678121301
endloop
endfacet
facet normal -1.7502798377947405e-05 -2.374423479400748e-05 -0.9999999995649318
outer loop
vertex 274.0473720558371 129.54999999999984 0.0008459351448950325
vertex 274.2221825406948 138.22218254069463 0.0001707886678121301
vertex 274.2221825406948 129.77781745930506 0.0008459351448950325
endloop
endfacet
facet normal -1.7502798377947405e-05 -2.374423479400748e-05 -0.9999999995649318
outer loop
vertex 274.2221825406948 129.77781745930506 0.0008459351448950325
vertex 274.2221825406948 138.22218254069463 0.0001707886678121301
vertex 274.45 138.04737205583695 0.0001707886678121301
endloop
endfacet
facet normal -1.7502798377947405e-05 -2.374423479400748e-05 -0.9999999995649318
outer loop
vertex 274.2221825406948 129.77781745930506 0.0008459351448950325
vertex 274.45 138.04737205583695 0.0001707886678121301
vertex 274.45 129.9526279441627 0.0008459351448950325
endloop
endfacet
facet normal -1.7502798377947405e-05 -2.374423479400748e-05 -0.9999999995649318
outer loop
vertex 274.45 129.9526279441627 0.0008459351448950325
vertex 274.45 138.04737205583695 0.0001707886678121301
vertex 274.7152990503872 137.93748159108185 0.0001707886678121301
endloop
endfacet
facet normal -1.7502798377947405e-05 -2.374423479400748e-05 -0.9999999995649318
outer loop
vertex 274.45 129.9526279441627 0.0008459351448950325
vertex 274.7152990503872 137.93748159108185 0.0001707886678121301
vertex 274.7152990503872 130.06251840891784 0.0008459351448950325
endloop
endfacet
facet normal -1.7502798377947405e-05 -2.374423479400748e-05 -0.9999999995649318
outer loop
vertex 274.7152990503872 130.06251840891784 0.0008459351448950325
vertex 274.7152990503872 137.93748159108185 0.0001707886678121301
vertex 275.0 137.89999999999984 0.0001707886678121301
endloop
endfacet
facet normal -1.7502798377947405e-05 -2.374423479400748e-05 -0.9999999995649318
outer loop
vertex 274.7152990503872 130.06251840891784 0.0008459351448950325
vertex 275.0 137.89999999999984 0.0001707886678121301
vertex 275.0 130.09999999999985 0.0008459351448950325
endloop
endfacet
facet normal -1.7502798377947405e-05 -2.374423479400748e-05 -0.9999999995649318
outer loop
vertex 275.0 130.09999999999985 0.0008459351448950325
vertex 275.0 137.89999999999984 0.0001707886678121301
vertex 275.2847009496128 137.93748159108185 0.0001707886678121301
endloop
endfacet
facet normal -1.7502798377947405e-05 -2.374423479400748e-05 -0.9999999995649318
outer loop
vertex 275.0 130.09999999999985 0.0008459351448950325
vertex 275.2847009496128 137.93748159108185 0.0001707886678121301
vertex 275.2847009496128 130.06251840891784 0.0008459351448950325
endloop
endfacet
facet normal -1.7502798377947405e-05 -2.374423479400748e-05 -0.9999999995649318
outer loop
vertex 275.2847009496128 130.06251840891784 0.0008459351448950325
vertex 275.2847009496128 137.93748159108185 0.0001707886678121301
vertex 275.55 138.04737205583695 0.0001707886678121301
endloop
endfacet
facet normal -1.7502798377947405e-05 -2.374423479400748e-05 -0.9999999995649318
outer loop
vertex 275.2847009496128 130.06251840891784 0.0008459351448950325
vertex 275.55 138.04737205583695 0.0001707886678121301
vertex 275.55 129.9526279441627 0.0008459351448950325
endloop
endfacet
facet normal -1.7502798377947405e-05 -2.374423479400748e-05 -0.9999999995649318
outer loop
vertex 275.55 129.9526279441627 0.0008459351448950325
vertex 275.55 138.04737205583695 0.0001707886678121301
vertex 275.7778174593052 138.22218254069463 0.0001707886678121301
endloop
endfacet
facet normal -1.7502798377947405e-05 -2.374423479400748e-05 -0.9999999995649318
outer loop
vertex 275.55 129.9526279441627 0.0008459351448950325
vertex 275.7778174593052 138.22218254069463 0.0001707886678121301
vertex 275.7778174593052 129.77781745930506 0.0008459351448950325
endloop
endfacet
facet normal -1.7502798377947405e-05 -2.374423479400748e-05 -0.9999999995649318
outer loop
vertex 275.7778174593052 129.77781745930506 0.0008459351448950325
vertex 275.7778174593052 138.22218254069463 0.0001707886678121301
vertex 275.9526279441629 138.44999999999985 0.0001707886678121301
endloop
endfacet
facet normal -1.7502798377947405e-05 -2.374423479400748e-05 -0.9999999995649318
outer loop
vertex 275.7778174593052 129.77781745930506 0.0008459351448950325
vertex 275.9526279441629 138.44999999999985 0.0001707886678121301
vertex 275.9526279441629 129.54999999999984 0.0008459351448950325
endloop
endfacet
facet normal -1.7502798377947405e-05 -2.374423479400748e-05 -0.9999999995649318
outer loop
vertex 275.9526279441629 129.54999999999984 0.0008459351448950325
vertex 275.9526279441629 138.44999999999985 0.0001707886678121301
vertex 276.0625184089179 138.71529905038707 0.0001707886678121301
endloop
endfacet
facet normal -1.7502798377947405e-05 -2.374423479400748e-05 -0.9999999995649318
outer loop
vertex 275.9526279441629 129.54999999999984 0.0008459351448950325
vertex 276.0625184089179 138.71529905038707 0.0001707886678121301
vertex 276.062518408918 129.2847009496126 0.0008459351448950325
endloop
endfacet
facet normal -1.7502798377947405e-05 -2.374423479400748e-05 -0.9999999995649318
outer loop
vertex 276.062518408918 129.2847009496126 0.0008459351448950325
vertex 276.0625184089179 138.71529905038707 0.0001707886678121301
vertex 276.1 138.99999999999983 0.0001707886678121301
endloop
endfacet
facet normal -1.7502798377947405e-05 -2.374423479400748e-05 -0.9999999995649318
outer loop
vertex 276.062518408918 129.2847009496126 0.0008459351448950325
vertex 276.1 138.99999999999983 0.0001707886678121301
vertex 276.1 128.99999999999983 0.0008459351448950325
endloop
endfacet
facet normal -1.0 0.0 0.0
outer loop
vertex 276.1 138.99999999999983 1.9999999999999998
vertex 276.0625184089179 138.71529905038707 0.0001707886678121301
vertex 276.0625184089179 138.71529905038707 1.9999999999999998
endloop
endfacet
facet normal -0.9659258262890609 0.25881904510254905 0.0
outer loop
vertex 276.0625184089179 138.71529905038707 0.0001707886678121301
vertex 276.1 138.99999999999983 1.9999999999999998
vertex 276.1 138.99999999999983 0.0001707886678121301
endloop
endfacet
facet normal 0.9999999999471492 1.4026181627594344e-06 1.0185001881032158e-05
outer loop
vertex 277.11680019660423 141.27821522846148 0.0
vertex 277.11680019660423 131.75231834032377 1.9999999999999998
vertex 277.116840936562 126.75235641872528 0.0008459351448916837
endloop
endfacet
facet normal 0.9999999999471492 1.4026181627594344e-06 1.0185001881032158e-05
outer loop
vertex 277.11680019660423 131.75231834032377 1.9999999999999998
vertex 277.11680019660423 141.27821522846148 0.0
vertex 277.11680019660423 141.27821522846148 1.9999999999999998
endloop
endfacet
facet normal 0.9999999999471492 1.4026181627594344e-06 1.0185001881032158e-05
outer loop
vertex 277.116840936562 126.75235641872528 0.0008459351448916837
vertex 277.11680019660423 131.75231834032377 3.0
vertex 277.11680019660423 126.75231834032377 3.0
endloop
endfacet
facet normal 0.9999999999471492 1.4026181627594344e-06 1.0185001881032158e-05
outer loop
vertex 277.11680019660423 131.75231834032377 3.0
vertex 277.116840936562 126.75235641872528 0.0008459351448916837
vertex 277.11680019660423 131.75231834032377 1.9999999999999998
endloop
endfacet
facet normal -0.25881904510250386 0.9659258262890729 0.0
outer loop
vertex 275.2847009496128 137.93748159108185 1.9999999999999998
vertex 275.55 138.04737205583695 0.0001707886678121301
vertex 275.2847009496128 137.93748159108185 0.0001707886678121301
endloop
endfacet
facet normal -0.5000000000000152 0.86602540378443 0.0
outer loop
vertex 275.55 138.04737205583695 0.0001707886678121301
vertex 275.2847009496128 137.93748159108185 1.9999999999999998
vertex 275.55 138.04737205583695 1.9999999999999998
endloop
endfacet
facet normal 0.9659258262890648 0.25881904510253445 0.0
outer loop
vertex 273.937481591082 138.71529905038707 0.0001707886678121301
vertex 274.0473720558371 138.44999999999982 1.9999999999999998
vertex 274.0473720558371 138.44999999999982 0.0001707886678121301
endloop
endfacet
facet normal 0.8660254037844594 0.49999999999996436 0.0
outer loop
vertex 274.0473720558371 138.44999999999982 1.9999999999999998
vertex 273.937481591082 138.71529905038707 0.0001707886678121301
vertex 273.937481591082 138.71529905038707 1.9999999999999998
endloop
endfacet
facet normal 0.5000000000000152 -0.86602540378443 0.0
outer loop
vertex 274.45 139.9526279441627 1.9999999999999998
vertex 274.2221825406948 139.77781745930503 0.0001707886678121301
vertex 274.45 139.9526279441627 0.0001707886678121301
endloop
endfacet
facet normal 0.7071067811865697 -0.7071067811865256 0.0
outer loop
vertex 274.2221825406948 139.77781745930503 0.0001707886678121301
vertex 274.45 139.9526279441627 1.9999999999999998
vertex 274.2221825406948 139.77781745930503 1.9999999999999998
endloop
endfacet
facet normal -0.8660254037844637 0.49999999999995676 0.0
outer loop
vertex 275.9526279441629 138.44999999999985 1.9999999999999998
vertex 275.7778174593052 138.22218254069463 0.0001707886678121301
vertex 275.7778174593052 138.22218254069463 1.9999999999999998
endloop
endfacet
facet normal -0.7071067811865697 0.7071067811865256 0.0
outer loop
vertex 275.7778174593052 138.22218254069463 0.0001707886678121301
vertex 275.9526279441629 138.44999999999985 1.9999999999999998
vertex 275.9526279441629 138.44999999999985 0.0001707886678121301
endloop
endfacet
facet normal -0.874466345717482 0.4850861884320281 0.0
outer loop
vertex 272.2740628570241 140.51213876333497 1.9999999999999998
vertex 271.97557660197003 139.75508943608352 0.0
vertex 271.97557660197003 139.75508943608352 1.9999999999999998
endloop
endfacet
facet normal -0.9702191716315511 0.24222873280968746 0.0
outer loop
vertex 271.97557660197003 139.75508943608352 0.0
vertex 272.2740628570241 140.51213876333497 1.9999999999999998
vertex 272.2740628570241 140.51213876333497 0.0
endloop
endfacet
facet normal -0.9702191716315511 0.24222873280968746 0.0
outer loop
vertex 271.97557660197003 139.75508943608352 1.9999999999999998
vertex 271.8831998033957 138.94658201160718 0.0
vertex 271.8831998033957 138.94658201160718 1.9999999999999998
endloop
endfacet
facet normal -0.9935360062603932 0.1135174183292947 0.0
outer loop
vertex 271.8831998033957 138.94658201160718 0.0
vertex 271.97557660197003 139.75508943608352 1.9999999999999998
vertex 271.97557660197003 139.75508943608352 0.0
endloop
endfacet
facet normal 1.0 0.0 0.0
outer loop
vertex 273.9 138.99999999999983 0.0001707886678121301
vertex 273.937481591082 138.71529905038707 1.9999999999999998
vertex 273.937481591082 138.71529905038707 0.0001707886678121301
endloop
endfacet
facet normal 0.9659258262890648 0.25881904510253445 0.0
outer loop
vertex 273.937481591082 138.71529905038707 1.9999999999999998
vertex 273.9 138.99999999999983 0.0001707886678121301
vertex 273.9 138.99999999999983 1.9999999999999998
endloop
endfacet
facet normal -0.7191200834667524 0.6948858219555003 0.0
outer loop
vertex 272.7583172235478 141.16613833279246 1.9999999999999998
vertex 273.39533856673086 141.67251915458314 0.0
vertex 272.7583172235478 141.16613833279246 0.0
endloop
endfacet
facet normal -0.5147669759299491 0.8573301350657957 0.0
outer loop
vertex 273.39533856673086 141.67251915458314 0.0
vertex 272.7583172235478 141.16613833279246 1.9999999999999998
vertex 273.39533856673086 141.67251915458314 1.9999999999999998
endloop
endfacet
facet normal 0.9659258262890609 -0.25881904510254905 0.0
outer loop
vertex 273.937481591082 139.2847009496126 0.0001707886678121301
vertex 273.9 138.99999999999983 1.9999999999999998
vertex 273.9 138.99999999999983 0.0001707886678121301
endloop
endfacet
facet normal 1.0 0.0 0.0
outer loop
vertex 273.9 138.99999999999983 1.9999999999999998
vertex 273.937481591082 139.2847009496126 0.0001707886678121301
vertex 273.937481591082 139.2847009496126 1.9999999999999998
endloop
endfacet
facet normal 0.7071067811865527 0.7071067811865424 0.0
outer loop
vertex 274.2221825406948 138.22218254069463 1.9999999999999998
vertex 274.45 138.04737205583695 0.0001707886678121301
vertex 274.2221825406948 138.22218254069463 0.0001707886678121301
endloop
endfacet
facet normal 0.5000000000000152 0.86602540378443 0.0
outer loop
vertex 274.45 138.04737205583695 0.0001707886678121301
vertex 274.2221825406948 138.22218254069463 1.9999999999999998
vertex 274.45 138.04737205583695 1.9999999999999998
endloop
endfacet
facet normal 0.9659258262890635 0.25881904510253895 0.0
outer loop
vertex 273.93748159108196 128.71529905038705 0.0008459351448950325
vertex 274.0473720558371 128.44999999999982 3.0
vertex 274.0473720558371 128.44999999999982 0.0008459351448950325
endloop
endfacet
facet normal 0.8660254037844274 0.5000000000000195 0.0
outer loop
vertex 274.0473720558371 128.44999999999982 3.0
vertex 273.93748159108196 128.71529905038705 0.0008459351448950325
vertex 273.93748159108196 128.71529905038705 3.0
endloop
endfacet
facet normal -0.9659258262890635 0.25881904510253895 0.0
outer loop
vertex 276.062518408918 128.71529905038705 3.0
vertex 275.9526279441629 128.44999999999982 0.0008459351448950325
vertex 275.9526279441629 128.44999999999982 3.0
endloop
endfacet
facet normal -0.8660254037844274 0.5000000000000195 0.0
outer loop
vertex 275.9526279441629 128.44999999999982 0.0008459351448950325
vertex 276.062518408918 128.71529905038705 3.0
vertex 276.062518408918 128.71529905038705 0.0008459351448950325
endloop
endfacet
facet normal -0.8660254037844594 -0.49999999999996436 0.0
outer loop
vertex 275.9526279441629 139.54999999999984 1.9999999999999998
vertex 276.0625184089179 139.2847009496126 0.0001707886678121301
vertex 276.0625184089179 139.2847009496126 1.9999999999999998
endloop
endfacet
facet normal -0.9659258262890648 -0.25881904510253445 0.0
outer loop
vertex 276.0625184089179 139.2847009496126 0.0001707886678121301
vertex 275.9526279441629 139.54999999999984 1.9999999999999998
vertex 275.9526279441629 139.54999999999984 0.0001707886678121301
endloop
endfacet
facet normal 0.7071067811865697 -0.7071067811865256 0.0
outer loop
vertex 274.2221825406948 139.77781745930503 0.0001707886678121301
vertex 274.0473720558371 139.5499999999998 1.9999999999999998
vertex 274.0473720558371 139.5499999999998 0.0001707886678121301
endloop
endfacet
facet normal 0.8660254037844637 -0.49999999999995676 0.0
outer loop
vertex 274.0473720558371 139.5499999999998 1.9999999999999998
vertex 274.2221825406948 139.77781745930503 0.0001707886678121301
vertex 274.2221825406948 139.77781745930503 1.9999999999999998
endloop
endfacet
facet normal 0.7071067811865476 -0.7071067811865476 0.0
outer loop
vertex 274.2221825406948 129.77781745930506 0.0008459351448950325
vertex 274.0473720558371 129.54999999999984 3.0
vertex 274.0473720558371 129.54999999999984 0.0008459351448950325
endloop
endfacet
facet normal 0.8660254037844274 -0.5000000000000195 0.0
outer loop
vertex 274.0473720558371 129.54999999999984 3.0
vertex 274.2221825406948 129.77781745930506 0.0008459351448950325
vertex 274.2221825406948 129.77781745930506 3.0
endloop
endfacet
facet normal 0.9659258262890635 -0.25881904510253895 0.0
outer loop
vertex 273.93748159108196 129.2847009496126 0.0008459351448950325
vertex 273.9 128.99999999999983 3.0
vertex 273.9 128.99999999999983 0.0008459351448950325
endloop
endfacet
facet normal 1.0 0.0 0.0
outer loop
vertex 273.9 128.99999999999983 3.0
vertex 273.93748159108196 129.2847009496126 0.0008459351448950325
vertex 273.93748159108196 129.2847009496126 3.0
endloop
endfacet
facet normal -0.25881904510253895 -0.9659258262890635 0.0
outer loop
vertex 275.2847009496128 130.06251840891784 3.0
vertex 275.0 130.09999999999985 0.0008459351448950325
vertex 275.2847009496128 130.06251840891784 0.0008459351448950325
endloop
endfacet
facet normal 0.0 -1.0 0.0
outer loop
vertex 275.0 130.09999999999985 0.0008459351448950325
vertex 275.2847009496128 130.06251840891784 3.0
vertex 275.0 130.09999999999985 3.0
endloop
endfacet
facet normal -0.5000000000000195 -0.8660254037844274 0.0
outer loop
vertex 275.55 129.9526279441627 3.0
vertex 275.2847009496128 130.06251840891784 0.0008459351448950325
vertex 275.55 129.9526279441627 0.0008459351448950325
endloop
endfacet
facet normal -0.25881904510253895 -0.9659258262890635 0.0
outer loop
vertex 275.2847009496128 130.06251840891784 0.0008459351448950325
vertex 275.55 129.9526279441627 3.0
vertex 275.2847009496128 130.06251840891784 3.0
endloop
endfacet
facet normal 0.25881904510253895 -0.9659258262890635 0.0
outer loop
vertex 274.7152990503872 130.06251840891784 3.0
vertex 274.45 129.9526279441627 0.0008459351448950325
vertex 274.7152990503872 130.06251840891784 0.0008459351448950325
endloop
endfacet
facet normal 0.5000000000000195 -0.8660254037844274 0.0
outer loop
vertex 274.45 129.9526279441627 0.0008459351448950325
vertex 274.7152990503872 130.06251840891784 3.0
vertex 274.45 129.9526279441627 3.0
endloop
endfacet
facet normal -0.7071067811865476 -0.7071067811865476 0.0
outer loop
vertex 275.7778174593052 129.77781745930506 3.0
vertex 275.55 129.9526279441627 0.0008459351448950325
vertex 275.7778174593052 129.77781745930506 0.0008459351448950325
endloop
endfacet
facet normal -0.5000000000000195 -0.8660254037844274 0.0
outer loop
vertex 275.55 129.9526279441627 0.0008459351448950325
vertex 275.7778174593052 129.77781745930506 3.0
vertex 275.55 129.9526279441627 3.0
endloop
endfacet
facet normal 0.0 -1.0 0.0
outer loop
vertex 275.0 130.09999999999985 3.0
vertex 274.7152990503872 130.06251840891784 0.0008459351448950325
vertex 275.0 130.09999999999985 0.0008459351448950325
endloop
endfacet
facet normal 0.25881904510253895 -0.9659258262890635 0.0
outer loop
vertex 274.7152990503872 130.06251840891784 0.0008459351448950325
vertex 275.0 130.09999999999985 3.0
vertex 274.7152990503872 130.06251840891784 3.0
endloop
endfacet
facet normal 0.25881904510253895 0.9659258262890635 0.0
outer loop
vertex 274.7152990503872 127.93748159108182 3.0
vertex 275.0 127.8999999999998 0.0008459351448950325
vertex 274.7152990503872 127.93748159108182 0.0008459351448950325
endloop
endfacet
facet normal 0.0 1.0 0.0
outer loop
vertex 275.0 127.8999999999998 0.0008459351448950325
vertex 274.7152990503872 127.93748159108182 3.0
vertex 275.0 127.8999999999998 3.0
endloop
endfacet
facet normal -0.9659258262890635 -0.25881904510253895 0.0
outer loop
vertex 276.062518408918 129.2847009496126 3.0
vertex 276.1 128.99999999999983 0.0008459351448950325
vertex 276.1 128.99999999999983 3.0
endloop
endfacet
facet normal -1.0 0.0 0.0
outer loop
vertex 276.1 128.99999999999983 0.0008459351448950325
vertex 276.062518408918 129.2847009496126 3.0
vertex 276.062518408918 129.2847009496126 0.0008459351448950325
endloop
endfacet
facet normal 0.7071067811865476 0.7071067811865476 0.0
outer loop
vertex 274.2221825406948 128.2221825406946 3.0
vertex 274.45 128.04737205583695 0.0008459351448950325
vertex 274.2221825406948 128.2221825406946 0.0008459351448950325
endloop
endfacet
facet normal 0.5000000000000195 0.8660254037844274 0.0
outer loop
vertex 274.45 128.04737205583695 0.0008459351448950325
vertex 274.2221825406948 128.2221825406946 3.0
vertex 274.45 128.04737205583695 3.0
endloop
endfacet
facet normal -1.0 0.0 0.0
outer loop
vertex 276.1 128.99999999999983 3.0
vertex 276.062518408918 128.71529905038705 0.0008459351448950325
vertex 276.062518408918 128.71529905038705 3.0
endloop
endfacet
facet normal -0.9659258262890635 0.25881904510253895 0.0
outer loop
vertex 276.062518408918 128.71529905038705 0.0008459351448950325
vertex 276.1 128.99999999999983 3.0
vertex 276.1 128.99999999999983 0.0008459351448950325
endloop
endfacet
facet normal -0.25881904510253895 0.9659258262890635 0.0
outer loop
vertex 275.2847009496128 127.93748159108182 3.0
vertex 275.55 128.04737205583695 0.0008459351448950325
vertex 275.2847009496128 127.93748159108182 0.0008459351448950325
endloop
endfacet
facet normal -0.5000000000000195 0.8660254037844274 0.0
outer loop
vertex 275.55 128.04737205583695 0.0008459351448950325
vertex 275.2847009496128 127.93748159108182 3.0
vertex 275.55 128.04737205583695 3.0
endloop
endfacet
facet normal -0.8660254037844274 0.5000000000000195 0.0
outer loop
vertex 275.9526279441629 128.44999999999982 3.0
vertex 275.7778174593052 128.2221825406946 0.0008459351448950325
vertex 275.7778174593052 128.2221825406946 3.0
endloop
endfacet
facet normal -0.7071067811865476 0.7071067811865476 0.0
outer loop
vertex 275.7778174593052 128.2221825406946 0.0008459351448950325
vertex 275.9526279441629 128.44999999999982 3.0
vertex 275.9526279441629 128.44999999999982 0.0008459351448950325
endloop
endfacet
facet normal -0.5000000000000195 0.8660254037844274 0.0
outer loop
vertex 275.55 128.04737205583695 3.0
vertex 275.7778174593052 128.2221825406946 0.0008459351448950325
vertex 275.55 128.04737205583695 0.0008459351448950325
endloop
endfacet
facet normal -0.7071067811865476 0.7071067811865476 0.0
outer loop
vertex 275.7778174593052 128.2221825406946 0.0008459351448950325
vertex 275.55 128.04737205583695 3.0
vertex 275.7778174593052 128.2221825406946 3.0
endloop
endfacet
facet normal 1.0 0.0 0.0
outer loop
vertex 273.9 128.99999999999983 0.0008459351448950325
vertex 273.93748159108196 128.71529905038705 3.0
vertex 273.93748159108196 128.71529905038705 0.0008459351448950325
endloop
endfacet
facet normal 0.9659258262890635 0.25881904510253895 0.0
outer loop
vertex 273.93748159108196 128.71529905038705 3.0
vertex 273.9 128.99999999999983 0.0008459351448950325
vertex 273.9 128.99999999999983 3.0
endloop
endfacet
facet normal -0.7071067811865476 -0.7071067811865476 0.0
outer loop
vertex 275.7778174593052 129.77781745930506 3.0
vertex 275.9526279441629 129.54999999999984 0.0008459351448950325
vertex 275.9526279441629 129.54999999999984 3.0
endloop
endfacet
facet normal -0.8660254037844274 -0.5000000000000195 0.0
outer loop
vertex 275.9526279441629 129.54999999999984 0.0008459351448950325
vertex 275.7778174593052 129.77781745930506 3.0
vertex 275.7778174593052 129.77781745930506 0.0008459351448950325
endloop
endfacet
facet normal 0.8660254037844274 0.5000000000000195 0.0
outer loop
vertex 274.0473720558371 128.44999999999982 0.0008459351448950325
vertex 274.2221825406948 128.2221825406946 3.0
vertex 274.2221825406948 128.2221825406946 0.0008459351448950325
endloop
endfacet
facet normal 0.7071067811865476 0.7071067811865476 0.0
outer loop
vertex 274.2221825406948 128.2221825406946 3.0
vertex 274.0473720558371 128.44999999999982 0.0008459351448950325
vertex 274.0473720558371 128.44999999999982 3.0
endloop
endfacet
facet normal 0.8660254037844274 -0.5000000000000195 0.0
outer loop
vertex 274.0473720558371 129.54999999999984 0.0008459351448950325
vertex 273.93748159108196 129.2847009496126 3.0
vertex 273.93748159108196 129.2847009496126 0.0008459351448950325
endloop
endfacet
facet normal 0.9659258262890635 -0.25881904510253895 0.0
outer loop
vertex 273.93748159108196 129.2847009496126 3.0
vertex 274.0473720558371 129.54999999999984 0.0008459351448950325
vertex 274.0473720558371 129.54999999999984 3.0
endloop
endfacet
facet normal -0.8660254037844274 -0.5000000000000195 0.0
outer loop
vertex 275.9526279441629 129.54999999999984 3.0
vertex 276.062518408918 129.2847009496126 0.0008459351448950325
vertex 276.062518408918 129.2847009496126 3.0
endloop
endfacet
facet normal -0.9659258262890635 -0.25881904510253895 0.0
outer loop
vertex 276.062518408918 129.2847009496126 0.0008459351448950325
vertex 275.9526279441629 129.54999999999984 3.0
vertex 275.9526279441629 129.54999999999984 0.0008459351448950325
endloop
endfacet
facet normal 0.5000000000000195 -0.8660254037844274 0.0
outer loop
vertex 274.45 129.9526279441627 3.0
vertex 274.2221825406948 129.77781745930506 0.0008459351448950325
vertex 274.45 129.9526279441627 0.0008459351448950325
endloop
endfacet
facet normal 0.7071067811865476 -0.7071067811865476 0.0
outer loop
vertex 274.2221825406948 129.77781745930506 0.0008459351448950325
vertex 274.45 129.9526279441627 3.0
vertex 274.2221825406948 129.77781745930506 3.0
endloop
endfacet
facet normal 0.5000000000000195 0.8660254037844274 0.0
outer loop
vertex 274.45 128.04737205583695 3.0
vertex 274.7152990503872 127.93748159108182 0.0008459351448950325
vertex 274.45 128.04737205583695 0.0008459351448950325
endloop
endfacet
facet normal 0.25881904510253895 0.9659258262890635 0.0
outer loop
vertex 274.7152990503872 127.93748159108182 0.0008459351448950325
vertex 274.45 128.04737205583695 3.0
vertex 274.7152990503872 127.93748159108182 3.0
endloop
endfacet
facet normal 0.0 1.0 0.0
outer loop
vertex 275.0 127.8999999999998 3.0
vertex 275.2847009496128 127.93748159108182 0.0008459351448950325
vertex 275.0 127.8999999999998 0.0008459351448950325
endloop
endfacet
facet normal -0.25881904510253895 0.9659258262890635 0.0
outer loop
vertex 275.2847009496128 127.93748159108182 0.0008459351448950325
vertex 275.0 127.8999999999998 3.0
vertex 275.2847009496128 127.93748159108182 3.0
endloop
endfacet
facet normal 0.0 0.0 1.0
outer loop
vertex 271.90123769433455 131.75231834032377 1.9999999999999998
vertex 271.97557660197003 139.75508943608352 1.9999999999999998
vertex 271.8831998033957 138.94658201160718 1.9999999999999998
endloop
endfacet
facet normal 0.0 0.0 1.0
outer loop
vertex 271.97557660197003 139.75508943608352 1.9999999999999998
vertex 271.90123769433455 131.75231834032377 1.9999999999999998
vertex 277.11680019660423 131.75231834032377 1.9999999999999998
endloop
endfacet
facet normal 0.0 0.0 1.0
outer loop
vertex 271.97557660197003 139.75508943608352 1.9999999999999998
vertex 277.11680019660423 131.75231834032377 1.9999999999999998
vertex 272.2740628570241 140.51213876333497 1.9999999999999998
endloop
endfacet
facet normal 0.0 0.0 1.0
outer loop
vertex 272.2740628570241 140.51213876333497 1.9999999999999998
vertex 277.11680019660423 131.75231834032377 1.9999999999999998
vertex 272.7583172235478 141.16613833279246 1.9999999999999998
endloop
endfacet
facet normal 0.0 0.0 1.0
outer loop
vertex 272.7583172235478 141.16613833279246 1.9999999999999998
vertex 277.11680019660423 131.75231834032377 1.9999999999999998
vertex 274.0473720558371 138.44999999999982 1.9999999999999998
endloop
endfacet
facet normal 0.0 0.0 1.0
outer loop
vertex 272.7583172235478 141.16613833279246 1.9999999999999998
vertex 274.0473720558371 138.44999999999982 1.9999999999999998
vertex 273.937481591082 138.71529905038707 1.9999999999999998
endloop
endfacet
facet normal 0.0 0.0 1.0
outer loop
vertex 272.7583172235478 141.16613833279246 1.9999999999999998
vertex 273.937481591082 138.71529905038707 1.9999999999999998
vertex 273.39533856673086 141.67251915458314 1.9999999999999998
endloop
endfacet
facet normal 0.0 0.0 1.0
outer loop
vertex 273.39533856673086 141.67251915458314 1.9999999999999998
vertex 273.937481591082 138.71529905038707 1.9999999999999998
vertex 273.9 138.99999999999983 1.9999999999999998
endloop
endfacet
facet normal 0.0 0.0 1.0
outer loop
vertex 274.0473720558371 138.44999999999982 1.9999999999999998
vertex 277.11680019660423 131.75231834032377 1.9999999999999998
vertex 274.2221825406948 138.22218254069463 1.9999999999999998
endloop
endfacet
facet normal 0.0 0.0 1.0
outer loop
vertex 274.2221825406948 138.22218254069463 1.9999999999999998
vertex 277.11680019660423 131.75231834032377 1.9999999999999998
vertex 274.45 138.04737205583695 1.9999999999999998
endloop
endfacet
facet normal 0.0 0.0 1.0
outer loop
vertex 274.45 138.04737205583695 1.9999999999999998
vertex 277.11680019660423 131.75231834032377 1.9999999999999998
vertex 274.7152990503872 137.93748159108185 1.9999999999999998
endloop
endfacet
facet normal 0.0 0.0 1.0
outer loop
vertex 274.7152990503872 137.93748159108185 1.9999999999999998
vertex 277.11680019660423 131.75231834032377 1.9999999999999998
vertex 275.0 137.89999999999984 1.9999999999999998
endloop
endfacet
facet normal 0.0 0.0 1.0
outer loop
vertex 275.0 137.89999999999984 1.9999999999999998
vertex 277.11680019660423 131.75231834032377 1.9999999999999998
vertex 275.2847009496128 137.93748159108185 1.9999999999999998
endloop
endfacet
facet normal 0.0 0.0 1.0
outer loop
vertex 275.2847009496128 137.93748159108185 1.9999999999999998
vertex 277.11680019660423 131.75231834032377 1.9999999999999998
vertex 275.55 138.04737205583695 1.9999999999999998
endloop
endfacet
facet normal 0.0 0.0 1.0
outer loop
vertex 275.55 138.04737205583695 1.9999999999999998
vertex 277.11680019660423 131.75231834032377 1.9999999999999998
vertex 275.7778174593052 138.22218254069463 1.9999999999999998
endloop
endfacet
facet normal 0.0 0.0 1.0
outer loop
vertex 275.7778174593052 138.22218254069463 1.9999999999999998
vertex 277.11680019660423 131.75231834032377 1.9999999999999998
vertex 275.9526279441629 138.44999999999985 1.9999999999999998
endloop
endfacet
facet normal 0.0 0.0 1.0
outer loop
vertex 275.9526279441629 138.44999999999985 1.9999999999999998
vertex 277.11680019660423 131.75231834032377 1.9999999999999998
vertex 276.0625184089179 138.71529905038707 1.9999999999999998
endloop
endfacet
facet normal 0.0 0.0 1.0
outer loop
vertex 276.0625184089179 138.71529905038707 1.9999999999999998
vertex 277.11680019660423 131.75231834032377 1.9999999999999998
vertex 276.1 138.99999999999983 1.9999999999999998
endloop
endfacet
facet normal 0.0 0.0 1.0
outer loop
vertex 276.1 138.99999999999983 1.9999999999999998
vertex 277.11680019660423 131.75231834032377 1.9999999999999998
vertex 276.51213876333503 141.7259371429758 1.9999999999999998
endloop
endfacet
facet normal 0.0 0.0 1.0
outer loop
vertex 276.51213876333503 141.7259371429758 1.9999999999999998
vertex 277.11680019660423 131.75231834032377 1.9999999999999998
vertex 277.11680019660423 141.27821522846148 1.9999999999999998
endloop
endfacet
facet normal 0.0 0.0 1.0
outer loop
vertex 273.9 138.99999999999983 1.9999999999999998
vertex 274.1417149347627 141.99677221253572 1.9999999999999998
vertex 273.39533856673086 141.67251915458314 1.9999999999999998
endloop
endfacet
facet normal 0.0 0.0 1.0
outer loop
vertex 274.1417149347627 141.99677221253572 1.9999999999999998
vertex 273.9 138.99999999999983 1.9999999999999998
vertex 273.937481591082 139.2847009496126 1.9999999999999998
endloop
endfacet
facet normal 0.0 0.0 1.0
outer loop
vertex 274.1417149347627 141.99677221253572 1.9999999999999998
vertex 273.937481591082 139.2847009496126 1.9999999999999998
vertex 274.0473720558371 139.5499999999998 1.9999999999999998
endloop
endfacet
facet normal 0.0 0.0 1.0
outer loop
vertex 274.1417149347627 141.99677221253572 1.9999999999999998
vertex 274.0473720558371 139.5499999999998 1.9999999999999998
vertex 274.2221825406948 139.77781745930503 1.9999999999999998
endloop
endfacet
facet normal 0.0 0.0 1.0
outer loop
vertex 274.1417149347627 141.99677221253572 1.9999999999999998
vertex 274.2221825406948 139.77781745930503 1.9999999999999998
vertex 274.9465820116074 142.11680019660415 1.9999999999999998
endloop
endfacet
facet normal 0.0 0.0 1.0
outer loop
vertex 274.9465820116074 142.11680019660415 1.9999999999999998
vertex 274.2221825406948 139.77781745930503 1.9999999999999998
vertex 274.45 139.9526279441627 1.9999999999999998
endloop
endfacet
facet normal 0.0 0.0 1.0
outer loop
vertex 274.9465820116074 142.11680019660415 1.9999999999999998
vertex 274.45 139.9526279441627 1.9999999999999998
vertex 274.7152990503872 140.0625184089178 1.9999999999999998
endloop
endfacet
facet normal 0.0 0.0 1.0
outer loop
vertex 274.9465820116074 142.11680019660415 1.9999999999999998
vertex 274.7152990503872 140.0625184089178 1.9999999999999998
vertex 275.0 140.09999999999982 1.9999999999999998
endloop
endfacet
facet normal 0.0 0.0 1.0
outer loop
vertex 274.9465820116074 142.11680019660415 1.9999999999999998
vertex 275.0 140.09999999999982 1.9999999999999998
vertex 275.7550894360836 142.0244233980298 1.9999999999999998
endloop
endfacet
facet normal 0.0 0.0 1.0
outer loop
vertex 275.7550894360836 142.0244233980298 1.9999999999999998
vertex 275.0 140.09999999999982 1.9999999999999998
vertex 275.2847009496128 140.0625184089178 1.9999999999999998
endloop
endfacet
facet normal 0.0 0.0 1.0
outer loop
vertex 275.7550894360836 142.0244233980298 1.9999999999999998
vertex 275.2847009496128 140.0625184089178 1.9999999999999998
vertex 275.55 139.9526279441627 1.9999999999999998
endloop
endfacet
facet normal 0.0 0.0 1.0
outer loop
vertex 275.7550894360836 142.0244233980298 1.9999999999999998
vertex 275.55 139.9526279441627 1.9999999999999998
vertex 275.7778174593052 139.77781745930503 1.9999999999999998
endloop
endfacet
facet normal 0.0 0.0 1.0
outer loop
vertex 275.7550894360836 142.0244233980298 1.9999999999999998
vertex 275.7778174593052 139.77781745930503 1.9999999999999998
vertex 276.51213876333503 141.7259371429758 1.9999999999999998
endloop
endfacet
facet normal 0.0 0.0 1.0
outer loop
vertex 276.51213876333503 141.7259371429758 1.9999999999999998
vertex 275.7778174593052 139.77781745930503 1.9999999999999998
vertex 275.9526279441629 139.54999999999984 1.9999999999999998
endloop
endfacet
facet normal 0.0 0.0 1.0
outer loop
vertex 276.51213876333503 141.7259371429758 1.9999999999999998
vertex 275.9526279441629 139.54999999999984 1.9999999999999998
vertex 276.0625184089179 139.2847009496126 1.9999999999999998
endloop
endfacet
facet normal 0.0 0.0 1.0
outer loop
vertex 276.51213876333503 141.7259371429758 1.9999999999999998
vertex 276.0625184089179 139.2847009496126 1.9999999999999998
vertex 276.1 138.99999999999983 1.9999999999999998
endloop
endfacet
facet normal 0.0 0.0 1.0
outer loop
vertex 274.1481348729421 126.02718732293116 3.0
vertex 273.9 128.99999999999983 3.0
vertex 273.40774093491217 126.34896237724092 3.0
endloop
endfacet
facet normal 0.0 0.0 1.0
outer loop
vertex 273.9 128.99999999999983 3.0
vertex 274.1481348729421 126.02718732293116 3.0
vertex 273.93748159108196 128.71529905038705 3.0
endloop
endfacet
facet normal 0.0 0.0 1.0
outer loop
vertex 273.93748159108196 128.71529905038705 3.0
vertex 274.1481348729421 126.02718732293116 3.0
vertex 274.0473720558371 128.44999999999982 3.0
endloop
endfacet
facet normal 0.0 0.0 1.0
outer loop
vertex 274.0473720558371 128.44999999999982 3.0
vertex 274.1481348729421 126.02718732293116 3.0
vertex 274.2221825406948 128.2221825406946 3.0
endloop
endfacet
facet normal 0.0 0.0 1.0
outer loop
vertex 274.2221825406948 128.2221825406946 3.0
vertex 274.1481348729421 126.02718732293116 3.0
vertex 274.94658201160735 125.90800453975838 3.0
endloop
endfacet
facet normal 0.0 0.0 1.0
outer loop
vertex 274.2221825406948 128.2221825406946 3.0
vertex 274.94658201160735 125.90800453975838 3.0
vertex 274.45 128.04737205583695 3.0
endloop
endfacet
facet normal 0.0 0.0 1.0
outer loop
vertex 274.45 128.04737205583695 3.0
vertex 274.94658201160735 125.90800453975838 3.0
vertex 274.7152990503872 127.93748159108182 3.0
endloop
endfacet
facet normal 0.0 0.0 1.0
outer loop
vertex 274.7152990503872 127.93748159108182 3.0
vertex 274.94658201160735 125.90800453975838 3.0
vertex 275.0 127.8999999999998 3.0
endloop
endfacet
facet normal 0.0 0.0 1.0
outer loop
vertex 275.0 127.8999999999998 3.0
vertex 274.94658201160735 125.90800453975838 3.0
vertex 275.74866949790413 125.99953613743696 3.0
endloop
endfacet
facet normal 0.0 0.0 1.0
outer loop
vertex 275.0 127.8999999999998 3.0
vertex 275.74866949790413 125.99953613743696 3.0
vertex 275.2847009496128 127.93748159108182 3.0
endloop
endfacet
facet normal 0.0 0.0 1.0
outer loop
vertex 275.2847009496128 127.93748159108182 3.0
vertex 275.74866949790413 125.99953613743696 3.0
vertex 275.55 128.04737205583695 3.0
endloop
endfacet
facet normal 0.0 0.0 1.0
outer loop
vertex 275.55 128.04737205583695 3.0
vertex 275.74866949790413 125.99953613743696 3.0
vertex 275.7778174593052 128.2221825406946 3.0
endloop
endfacet
facet normal 0.0 0.0 1.0
outer loop
vertex 275.7778174593052 128.2221825406946 3.0
vertex 275.74866949790413 125.99953613743696 3.0
vertex 276.4997363951536 126.29554438884824 3.0
endloop
endfacet
facet normal 0.0 0.0 1.0
outer loop
vertex 275.7778174593052 128.2221825406946 3.0
vertex 276.4997363951536 126.29554438884824 3.0
vertex 275.9526279441629 128.44999999999982 3.0
endloop
endfacet
facet normal 0.0 0.0 1.0
outer loop
vertex 275.9526279441629 128.44999999999982 3.0
vertex 276.4997363951536 126.29554438884824 3.0
vertex 276.062518408918 128.71529905038705 3.0
endloop
endfacet
facet normal 0.0 0.0 1.0
outer loop
vertex 276.062518408918 128.71529905038705 3.0
vertex 276.4997363951536 126.29554438884824 3.0
vertex 276.1 128.99999999999983 3.0
endloop
endfacet
facet normal 0.0 0.0 1.0
outer loop
vertex 271.90800453975856 129.0534179883925 3.0
vertex 277.11680019660423 131.75231834032377 3.0
vertex 271.90123769433455 131.75231834032377 3.0
endloop
endfacet
facet normal 0.0 0.0 1.0
outer loop
vertex 277.11680019660423 131.75231834032377 3.0
vertex 271.90800453975856 129.0534179883925 3.0
vertex 274.45 129.9526279441627 3.0
endloop
endfacet
facet normal 0.0 0.0 1.0
outer loop
vertex 274.45 129.9526279441627 3.0
vertex 271.90800453975856 129.0534179883925 3.0
vertex 271.99953613743713 128.2513305020957 3.0
endloop
endfacet
facet normal 0.0 0.0 1.0
outer loop
vertex 274.45 129.9526279441627 3.0
vertex 271.99953613743713 128.2513305020957 3.0
vertex 274.2221825406948 129.77781745930506 3.0
endloop
endfacet
facet normal 0.0 0.0 1.0
outer loop
vertex 274.2221825406948 129.77781745930506 3.0
vertex 271.99953613743713 128.2513305020957 3.0
vertex 272.2955443888484 127.50026360484623 3.0
endloop
endfacet
facet normal 0.0 0.0 1.0
outer loop
vertex 274.2221825406948 129.77781745930506 3.0
vertex 272.2955443888484 127.50026360484623 3.0
vertex 274.0473720558371 129.54999999999984 3.0
endloop
endfacet
facet normal 0.0 0.0 1.0
outer loop
vertex 274.0473720558371 129.54999999999984 3.0
vertex 272.2955443888484 127.50026360484623 3.0
vertex 272.77585682083543 126.85140126449487 3.0
endloop
endfacet
facet normal 0.0 0.0 1.0
outer loop
vertex 274.0473720558371 129.54999999999984 3.0
vertex 272.77585682083543 126.85140126449487 3.0
vertex 273.93748159108196 129.2847009496126 3.0
endloop
endfacet
facet normal 0.0 0.0 1.0
outer loop
vertex 273.93748159108196 129.2847009496126 3.0
vertex 272.77585682083543 126.85140126449487 3.0
vertex 273.40774093491217 126.34896237724092 3.0
endloop
endfacet
facet normal 0.0 0.0 1.0
outer loop
vertex 273.93748159108196 129.2847009496126 3.0
vertex 273.40774093491217 126.34896237724092 3.0
vertex 273.9 128.99999999999983 3.0
endloop
endfacet
facet normal 0.0 0.0 1.0
outer loop
vertex 277.11680019660423 131.75231834032377 3.0
vertex 274.45 129.9526279441627 3.0
vertex 274.7152990503872 130.06251840891784 3.0
endloop
endfacet
facet normal 0.0 0.0 1.0
outer loop
vertex 277.11680019660423 131.75231834032377 3.0
vertex 274.7152990503872 130.06251840891784 3.0
vertex 275.0 130.09999999999985 3.0
endloop
endfacet
facet normal 0.0 0.0 1.0
outer loop
vertex 277.11680019660423 131.75231834032377 3.0
vertex 275.0 130.09999999999985 3.0
vertex 275.2847009496128 130.06251840891784 3.0
endloop
endfacet
facet normal 0.0 0.0 1.0
outer loop
vertex 277.11680019660423 131.75231834032377 3.0
vertex 275.2847009496128 130.06251840891784 3.0
vertex 275.55 129.9526279441627 3.0
endloop
endfacet
facet normal 0.0 0.0 1.0
outer loop
vertex 277.11680019660423 131.75231834032377 3.0
vertex 275.55 129.9526279441627 3.0
vertex 275.7778174593052 129.77781745930506 3.0
endloop
endfacet
facet normal 0.0 0.0 1.0
outer loop
vertex 277.11680019660423 131.75231834032377 3.0
vertex 275.7778174593052 129.77781745930506 3.0
vertex 275.9526279441629 129.54999999999984 3.0
endloop
endfacet
facet normal 0.0 0.0 1.0
outer loop
vertex 277.11680019660423 131.75231834032377 3.0
vertex 275.9526279441629 129.54999999999984 3.0
vertex 276.062518408918 129.2847009496126 3.0
endloop
endfacet
facet normal 0.0 0.0 1.0
outer loop
vertex 277.11680019660423 131.75231834032377 3.0
vertex 276.062518408918 129.2847009496126 3.0
vertex 276.1 128.99999999999983 3.0
endloop
endfacet
facet normal 0.0 0.0 1.0
outer loop
vertex 277.11680019660423 131.75231834032377 3.0
vertex 276.1 128.99999999999983 3.0
vertex 276.4997363951536 126.29554438884824 3.0
endloop
endfacet
facet normal 0.0 0.0 1.0
outer loop
vertex 277.11680019660423 131.75231834032377 3.0
vertex 276.4997363951536 126.29554438884824 3.0
vertex 277.11680019660423 126.75231834032377 3.0
endloop
endfacet
facet normal 0.0 1.0 0.0
outer loop
vertex 271.90123769433455 131.75231834032377 3.0
vertex 277.11680019660423 131.75231834032377 1.9999999999999998
vertex 271.90123769433455 131.75231834032377 1.9999999999999998
endloop
endfacet
facet normal 0.0 1.0 0.0
outer loop
vertex 277.11680019660423 131.75231834032377 1.9999999999999998
vertex 271.90123769433455 131.75231834032377 3.0
vertex 277.11680019660423 131.75231834032377 3.0
endloop
endfacet
endsolid Pantalla
