solid Pantalla
facet normal 0.0 0.0 -1.0
outer loop
vertex 183.43173860013394 71.84455963361563 1.127986593019159e-14
vertex 186.93173860013394 68.34455963361563 1.127986593019159e-14
vertex 183.43173860013394 14.84455963361563 1.127986593019159e-14
endloop
endfacet
facet normal 0.0 0.0 -1.0
outer loop
vertex 186.93173860013394 68.34455963361563 1.127986593019159e-14
vertex 183.43173860013394 71.84455963361563 1.127986593019159e-14
vertex 267.43173860013394 71.84455963361563 1.127986593019159e-14
endloop
endfacet
facet normal 0.0 0.0 -1.0
outer loop
vertex 186.93173860013394 68.34455963361563 1.127986593019159e-14
vertex 267.43173860013394 71.84455963361563 1.127986593019159e-14
vertex 263.9317386001339 68.34455963361563 1.127986593019159e-14
endloop
endfacet
facet normal 0.0 0.0 -1.0
outer loop
vertex 263.9317386001339 68.34455963361563 1.127986593019159e-14
vertex 267.43173860013394 71.84455963361563 1.127986593019159e-14
vertex 263.9317386001339 18.34455963361563 1.127986593019159e-14
endloop
endfacet
facet normal 0.0 0.0 -1.0
outer loop
vertex 183.43173860013394 14.84455963361563 1.127986593019159e-14
vertex 186.93173860013394 18.34455963361563 1.127986593019159e-14
vertex 267.43173860013394 14.84455963361563 1.127986593019159e-14
endloop
endfacet
facet normal 0.0 0.0 -1.0
outer loop
vertex 186.93173860013394 18.34455963361563 1.127986593019159e-14
vertex 183.43173860013394 14.84455963361563 1.127986593019159e-14
vertex 186.93173860013394 68.34455963361563 1.127986593019159e-14
endloop
endfacet
facet normal 0.0 0.0 -1.0
outer loop
vertex 267.43173860013394 14.84455963361563 1.127986593019159e-14
vertex 186.93173860013394 18.34455963361563 1.127986593019159e-14
vertex 263.9317386001339 18.34455963361563 1.127986593019159e-14
endloop
endfacet
facet normal 0.0 0.0 -1.0
outer loop
vertex 267.43173860013394 14.84455963361563 1.127986593019159e-14
vertex 263.9317386001339 18.34455963361563 1.127986593019159e-14
vertex 267.43173860013394 71.84455963361563 1.127986593019159e-14
endloop
endfacet
facet normal 0.0 -1.0 0.0
outer loop
vertex 263.9317386001339 18.34455963361563 1.000000000000011
vertex 186.93173860013394 18.34455963361563 1.127986593019159e-14
vertex 263.9317386001339 18.34455963361563 1.127986593019159e-14
endloop
endfacet
facet normal 0.0 -1.0 0.0
outer loop
vertex 186.93173860013394 18.34455963361563 1.127986593019159e-14
vertex 263.9317386001339 18.34455963361563 1.000000000000011
vertex 186.93173860013394 18.34455963361563 1.000000000000011
endloop
endfacet
facet normal 0.0 1.0 0.0
outer loop
vertex 186.93173860013394 68.34455963361563 1.000000000000011
vertex 263.9317386001339 68.34455963361563 1.127986593019159e-14
vertex 186.93173860013394 68.34455963361563 1.127986593019159e-14
endloop
endfacet
facet normal 0.0 1.0 0.0
outer loop
vertex 263.9317386001339 68.34455963361563 1.127986593019159e-14
vertex 186.93173860013394 68.34455963361563 1.000000000000011
vertex 263.9317386001339 68.34455963361563 1.000000000000011
endloop
endfacet
facet normal 1.0 2.588114553772449e-16 2.8199664825479014e-15
outer loop
vertex 267.43173860013394 71.84455963361563 1.127986593019159e-14
vertex 267.43173860013394 14.84455963361563 4.000000000000007
vertex 267.43173860013394 14.84455963361563 1.127986593019159e-14
endloop
endfacet
facet normal 1.0 2.588114553772449e-16 2.8199664825479014e-15
outer loop
vertex 267.43173860013394 14.84455963361563 4.000000000000007
vertex 267.43173860013394 71.84455963361563 1.127986593019159e-14
vertex 267.43173860013394 71.84455963361563 4.000000000000007
endloop
endfacet
facet normal 0.0 1.0 0.0
outer loop
vertex 183.43173860013394 71.84455963361563 4.000000000000007
vertex 267.43173860013394 71.84455963361563 1.127986593019159e-14
vertex 183.43173860013394 71.84455963361563 1.127986593019159e-14
endloop
endfacet
facet normal 0.0 1.0 0.0
outer loop
vertex 267.43173860013394 71.84455963361563 1.127986593019159e-14
vertex 183.43173860013394 71.84455963361563 4.000000000000007
vertex 267.43173860013394 71.84455963361563 4.000000000000007
endloop
endfacet
facet normal 0.0 1.0 0.0
outer loop
vertex 267.43173860013394 71.84455963361563 4.000000000000007
vertex 183.43173860013394 71.84455963361563 4.000000000000007
vertex 220.4317386001339 71.84455963361563 4.00000000000001
endloop
endfacet
facet normal 0.0 1.0 0.0
outer loop
vertex 267.43173860013394 71.84455963361563 4.000000000000007
vertex 220.4317386001339 71.84455963361563 4.00000000000001
vertex 230.43173860013388 71.84455963361563 4.00000000000001
endloop
endfacet
facet normal 0.0 1.0 0.0
outer loop
vertex 230.43173860013388 71.84455963361563 4.00000000000001
vertex 220.4317386001339 71.84455963361563 4.00000000000001
vertex 220.4317386001339 71.84455963361563 5.000000000000009
endloop
endfacet
facet normal 0.0 1.0 0.0
outer loop
vertex 230.43173860013388 71.84455963361563 4.00000000000001
vertex 220.4317386001339 71.84455963361563 5.000000000000009
vertex 230.43173860013388 71.84455963361563 5.000000000000009
endloop
endfacet
facet normal 2.847706494042814e-18 -2.2127474224372184e-17 1.0
outer loop
vertex 183.43173860013394 14.84455963361563 4.000000000000007
vertex 184.93173860013394 16.34455963361563 4.000000000000011
vertex 183.43173860013394 71.84455963361563 4.000000000000007
endloop
endfacet
facet normal 2.847706494042814e-18 -2.2127474224372184e-17 1.0
outer loop
vertex 184.93173860013394 16.34455963361563 4.000000000000011
vertex 183.43173860013394 14.84455963361563 4.000000000000007
vertex 220.4317386001339 14.84455963361563 4.000000000000007
endloop
endfacet
facet normal 2.847706494042814e-18 -2.2127474224372184e-17 1.0
outer loop
vertex 184.93173860013394 16.34455963361563 4.000000000000011
vertex 220.4317386001339 14.84455963361563 4.000000000000007
vertex 220.4317386001339 16.34455963361563 4.000000000000008
endloop
endfacet
facet normal 2.847706494042814e-18 -2.2127474224372184e-17 1.0
outer loop
vertex 183.43173860013394 71.84455963361563 4.000000000000007
vertex 184.93173860013394 70.34455963361563 4.000000000000011
vertex 220.4317386001339 71.84455963361563 4.00000000000001
endloop
endfacet
facet normal 2.847706494042814e-18 -2.2127474224372184e-17 1.0
outer loop
vertex 184.93173860013394 70.34455963361563 4.000000000000011
vertex 183.43173860013394 71.84455963361563 4.000000000000007
vertex 184.93173860013394 16.34455963361563 4.000000000000011
endloop
endfacet
facet normal 2.847706494042814e-18 -2.2127474224372184e-17 1.0
outer loop
vertex 220.4317386001339 71.84455963361563 4.00000000000001
vertex 184.93173860013394 70.34455963361563 4.000000000000011
vertex 220.4317386001339 70.34455963361563 4.000000000000011
endloop
endfacet
facet normal 0.0 -1.0 0.0
outer loop
vertex 230.43173860013388 14.84455963361563 5.000000000000008
vertex 220.4317386001339 14.84455963361563 4.000000000000007
vertex 230.43173860013388 14.84455963361563 4.000000000000007
endloop
endfacet
facet normal 0.0 -1.0 0.0
outer loop
vertex 220.4317386001339 14.84455963361563 4.000000000000007
vertex 230.43173860013388 14.84455963361563 5.000000000000008
vertex 220.4317386001339 14.84455963361563 5.000000000000008
endloop
endfacet
facet normal 0.0 -1.0 0.0
outer loop
vertex 267.43173860013394 14.84455963361563 4.000000000000007
vertex 183.43173860013394 14.84455963361563 1.127986593019159e-14
vertex 267.43173860013394 14.84455963361563 1.127986593019159e-14
endloop
endfacet
facet normal 0.0 -1.0 0.0
outer loop
vertex 183.43173860013394 14.84455963361563 1.127986593019159e-14
vertex 267.43173860013394 14.84455963361563 4.000000000000007
vertex 183.43173860013394 14.84455963361563 4.000000000000007
endloop
endfacet
facet normal 0.0 -1.0 0.0
outer loop
vertex 183.43173860013394 14.84455963361563 4.000000000000007
vertex 267.43173860013394 14.84455963361563 4.000000000000007
vertex 230.43173860013388 14.84455963361563 4.000000000000007
endloop
endfacet
facet normal 0.0 -1.0 0.0
outer loop
vertex 183.43173860013394 14.84455963361563 4.000000000000007
vertex 230.43173860013388 14.84455963361563 4.000000000000007
vertex 220.4317386001339 14.84455963361563 4.000000000000007
endloop
endfacet
facet normal 0.0 -1.0 0.0
outer loop
vertex 265.93173860013394 70.34455963361563 4.000000000000011
vertex 184.93173860013394 70.34455963361563 1.000000000000011
vertex 265.93173860013394 70.34455963361563 1.000000000000011
endloop
endfacet
facet normal 0.0 -1.0 0.0
outer loop
vertex 184.93173860013394 70.34455963361563 1.000000000000011
vertex 265.93173860013394 70.34455963361563 4.000000000000011
vertex 184.93173860013394 70.34455963361563 4.000000000000011
endloop
endfacet
facet normal 0.0 -1.0 0.0
outer loop
vertex 184.93173860013394 70.34455963361563 4.000000000000011
vertex 265.93173860013394 70.34455963361563 4.000000000000011
vertex 230.43173860013388 70.34455963361563 4.000000000000011
endloop
endfacet
facet normal 0.0 -1.0 0.0
outer loop
vertex 184.93173860013394 70.34455963361563 4.000000000000011
vertex 230.43173860013388 70.34455963361563 4.000000000000011
vertex 220.4317386001339 70.34455963361563 4.000000000000011
endloop
endfacet
facet normal -1.0 0.0 0.0
outer loop
vertex 183.43173860013394 71.84455963361563 4.000000000000007
vertex 183.43173860013394 14.84455963361563 1.127986593019159e-14
vertex 183.43173860013394 14.84455963361563 4.000000000000007
endloop
endfacet
facet normal -1.0 0.0 0.0
outer loop
vertex 183.43173860013394 14.84455963361563 1.127986593019159e-14
vertex 183.43173860013394 71.84455963361563 4.000000000000007
vertex 183.43173860013394 71.84455963361563 1.127986593019159e-14
endloop
endfacet
facet normal 1.0 0.0 0.0
outer loop
vertex 184.93173860013394 70.34455963361563 1.000000000000011
vertex 184.93173860013394 16.34455963361563 4.000000000000011
vertex 184.93173860013394 16.34455963361563 1.0000000000000109
endloop
endfacet
facet normal 1.0 0.0 0.0
outer loop
vertex 184.93173860013394 16.34455963361563 4.000000000000011
vertex 184.93173860013394 70.34455963361563 1.000000000000011
vertex 184.93173860013394 70.34455963361563 4.000000000000011
endloop
endfacet
facet normal 1.0 0.0 0.0
outer loop
vertex 263.9317386001339 68.34455963361563 1.127986593019159e-14
vertex 263.9317386001339 18.34455963361563 1.000000000000011
vertex 263.9317386001339 18.34455963361563 1.127986593019159e-14
endloop
endfacet
facet normal 1.0 0.0 0.0
outer loop
vertex 263.9317386001339 18.34455963361563 1.000000000000011
vertex 263.9317386001339 68.34455963361563 1.127986593019159e-14
vertex 263.9317386001339 68.34455963361563 1.000000000000011
endloop
endfacet
facet normal -1.0 0.0 0.0
outer loop
vertex 186.93173860013394 68.34455963361563 1.000000000000011
vertex 186.93173860013394 18.34455963361563 1.127986593019159e-14
vertex 186.93173860013394 18.34455963361563 1.000000000000011
endloop
endfacet
facet normal -1.0 0.0 0.0
outer loop
vertex 186.93173860013394 18.34455963361563 1.127986593019159e-14
vertex 186.93173860013394 68.34455963361563 1.000000000000011
vertex 186.93173860013394 68.34455963361563 1.127986593019159e-14
endloop
endfacet
facet normal 0.0 1.0 0.0
outer loop
vertex 184.93173860013394 16.34455963361563 4.000000000000011
vertex 220.4317386001339 16.34455963361563 4.000000000000008
vertex 184.93173860013394 16.34455963361563 1.0000000000000109
endloop
endfacet
facet normal 0.0 1.0 0.0
outer loop
vertex 184.93173860013394 16.34455963361563 1.0000000000000109
vertex 265.93173860013394 16.34455963361563 4.000000000000011
vertex 265.93173860013394 16.34455963361563 1.0000000000000104
endloop
endfacet
facet normal 0.0 1.0 0.0
outer loop
vertex 265.93173860013394 16.34455963361563 4.000000000000011
vertex 184.93173860013394 16.34455963361563 1.0000000000000109
vertex 220.4317386001339 16.34455963361563 4.000000000000008
endloop
endfacet
facet normal 0.0 1.0 0.0
outer loop
vertex 265.93173860013394 16.34455963361563 4.000000000000011
vertex 220.4317386001339 16.34455963361563 4.000000000000008
vertex 230.43173860013388 16.34455963361563 4.000000000000009
endloop
endfacet
facet normal -1.0 0.0 0.0
outer loop
vertex 265.93173860013394 70.34455963361563 4.000000000000011
vertex 265.93173860013394 16.34455963361563 1.0000000000000104
vertex 265.93173860013394 16.34455963361563 4.000000000000011
endloop
endfacet
facet normal -1.0 0.0 0.0
outer loop
vertex 265.93173860013394 16.34455963361563 1.0000000000000104
vertex 265.93173860013394 70.34455963361563 4.000000000000011
vertex 265.93173860013394 70.34455963361563 1.000000000000011
endloop
endfacet
facet normal -2.2030988144905454e-18 9.976296518447749e-18 -1.0
outer loop
vertex 184.93173860013394 70.34455963361563 1.000000000000011
vertex 186.93173860013394 68.34455963361563 1.000000000000011
vertex 184.93173860013394 16.34455963361563 1.0000000000000109
endloop
endfacet
facet normal -2.2030988144905454e-18 9.976296518447749e-18 -1.0
outer loop
vertex 186.93173860013394 68.34455963361563 1.000000000000011
vertex 184.93173860013394 70.34455963361563 1.000000000000011
vertex 265.93173860013394 70.34455963361563 1.000000000000011
endloop
endfacet
facet normal -2.2030988144905454e-18 9.976296518447749e-18 -1.0
outer loop
vertex 186.93173860013394 68.34455963361563 1.000000000000011
vertex 265.93173860013394 70.34455963361563 1.000000000000011
vertex 263.9317386001339 68.34455963361563 1.000000000000011
endloop
endfacet
facet normal -2.2030988144905454e-18 9.976296518447749e-18 -1.0
outer loop
vertex 263.9317386001339 68.34455963361563 1.000000000000011
vertex 265.93173860013394 70.34455963361563 1.000000000000011
vertex 263.9317386001339 18.34455963361563 1.000000000000011
endloop
endfacet
facet normal -2.2030988144905454e-18 9.976296518447749e-18 -1.0
outer loop
vertex 184.93173860013394 16.34455963361563 1.0000000000000109
vertex 186.93173860013394 18.34455963361563 1.000000000000011
vertex 265.93173860013394 16.34455963361563 1.0000000000000104
endloop
endfacet
facet normal -2.2030988144905454e-18 9.976296518447749e-18 -1.0
outer loop
vertex 186.93173860013394 18.34455963361563 1.000000000000011
vertex 184.93173860013394 16.34455963361563 1.0000000000000109
vertex 186.93173860013394 68.34455963361563 1.000000000000011
endloop
endfacet
facet normal -2.2030988144905454e-18 9.976296518447749e-18 -1.0
outer loop
vertex 265.93173860013394 16.34455963361563 1.0000000000000104
vertex 186.93173860013394 18.34455963361563 1.000000000000011
vertex 263.9317386001339 18.34455963361563 1.000000000000011
endloop
endfacet
facet normal -2.2030988144905454e-18 9.976296518447749e-18 -1.0
outer loop
vertex 265.93173860013394 16.34455963361563 1.0000000000000104
vertex 263.9317386001339 18.34455963361563 1.000000000000011
vertex 265.93173860013394 70.34455963361563 1.000000000000011
endloop
endfacet
facet normal -1.0 1.656710617227825e-32 -3.524958103184878e-17
outer loop
vertex 220.4317386001339 21.34455963361563 5.000000000000008
vertex 220.4317386001339 14.84455963361563 4.000000000000007
vertex 220.4317386001339 14.84455963361563 5.000000000000008
endloop
endfacet
facet normal -1.0 1.656710617227825e-32 -3.524958103184878e-17
outer loop
vertex 220.4317386001339 14.84455963361563 4.000000000000007
vertex 220.4317386001339 21.34455963361563 5.000000000000008
vertex 220.4317386001339 16.34455963361563 4.000000000000008
endloop
endfacet
facet normal -1.0 1.656710617227825e-32 -3.524958103184878e-17
outer loop
vertex 220.4317386001339 16.34455963361563 4.000000000000008
vertex 220.4317386001339 21.34455963361563 5.000000000000008
vertex 220.4317386001339 21.34455963361563 4.000000000000008
endloop
endfacet
facet normal 0.0 1.0 0.0
outer loop
vertex 220.4317386001339 21.34455963361563 5.000000000000008
vertex 230.43173860013388 21.34455963361563 4.000000000000009
vertex 220.4317386001339 21.34455963361563 4.000000000000008
endloop
endfacet
facet normal 0.0 1.0 0.0
outer loop
vertex 230.43173860013388 21.34455963361563 4.000000000000009
vertex 220.4317386001339 21.34455963361563 5.000000000000008
vertex 230.43173860013388 21.34455963361563 5.000000000000009
endloop
endfacet
facet normal 1.0 -3.31342123445565e-32 3.524958103184878e-17
outer loop
vertex 230.43173860013388 16.34455963361563 4.000000000000009
vertex 230.43173860013388 14.84455963361563 5.000000000000008
vertex 230.43173860013388 14.84455963361563 4.000000000000007
endloop
endfacet
facet normal 1.0 -3.31342123445565e-32 3.524958103184878e-17
outer loop
vertex 230.43173860013388 14.84455963361563 5.000000000000008
vertex 230.43173860013388 16.34455963361563 4.000000000000009
vertex 230.43173860013388 21.34455963361563 5.000000000000009
endloop
endfacet
facet normal 1.0 -3.31342123445565e-32 3.524958103184878e-17
outer loop
vertex 230.43173860013388 21.34455963361563 5.000000000000009
vertex 230.43173860013388 16.34455963361563 4.000000000000009
vertex 230.43173860013388 21.34455963361563 4.000000000000009
endloop
endfacet
facet normal 7.049916206369756e-17 0.0 -1.0
outer loop
vertex 230.43173860013388 21.34455963361563 4.000000000000009
vertex 220.4317386001339 16.34455963361563 4.000000000000008
vertex 220.4317386001339 21.34455963361563 4.000000000000008
endloop
endfacet
facet normal 7.049916206369756e-17 0.0 -1.0
outer loop
vertex 220.4317386001339 16.34455963361563 4.000000000000008
vertex 230.43173860013388 21.34455963361563 4.000000000000009
vertex 230.43173860013388 16.34455963361563 4.000000000000009
endloop
endfacet
facet normal -3.524958103184878e-17 -7.049916206369731e-16 1.0
outer loop
vertex 230.43173860013388 14.84455963361563 5.000000000000008
vertex 220.4317386001339 21.34455963361563 5.000000000000008
vertex 220.4317386001339 14.84455963361563 5.000000000000008
endloop
endfacet
facet normal -3.524958103184878e-17 -7.049916206369731e-16 1.0
outer loop
vertex 220.4317386001339 21.34455963361563 5.000000000000008
vertex 230.43173860013388 14.84455963361563 5.000000000000008
vertex 230.43173860013388 21.34455963361563 5.000000000000009
endloop
endfacet
facet normal 1.0 0.0 0.0
outer loop
vertex 230.43173860013388 70.34455963361563 4.000000000000011
vertex 230.43173860013388 65.34455963361563 5.000000000000015
vertex 230.43173860013388 65.34455963361563 4.000000000000016
endloop
endfacet
facet normal 1.0 0.0 0.0
outer loop
vertex 230.43173860013388 65.34455963361563 5.000000000000015
vertex 230.43173860013388 70.34455963361563 4.000000000000011
vertex 230.43173860013388 71.84455963361563 5.000000000000009
endloop
endfacet
facet normal 1.0 0.0 0.0
outer loop
vertex 230.43173860013388 71.84455963361563 5.000000000000009
vertex 230.43173860013388 70.34455963361563 4.000000000000011
vertex 230.43173860013388 71.84455963361563 4.00000000000001
endloop
endfacet
facet normal 0.0 -1.0 9.399888275159675e-16
outer loop
vertex 230.43173860013388 65.34455963361563 5.000000000000015
vertex 220.4317386001339 65.34455963361563 4.000000000000016
vertex 230.43173860013388 65.34455963361563 4.000000000000016
endloop
endfacet
facet normal 0.0 -1.0 9.399888275159675e-16
outer loop
vertex 220.4317386001339 65.34455963361563 4.000000000000016
vertex 230.43173860013388 65.34455963361563 5.000000000000015
vertex 220.4317386001339 65.34455963361563 5.000000000000015
endloop
endfacet
facet normal 1.1323821117487836e-17 -1.9039919681436534e-17 1.0
outer loop
vertex 267.43173860013394 14.84455963361563 4.000000000000007
vertex 230.43173860013388 16.34455963361563 4.000000000000009
vertex 230.43173860013388 14.84455963361563 4.000000000000007
endloop
endfacet
facet normal 1.1323821117487836e-17 -1.9039919681436534e-17 1.0
outer loop
vertex 230.43173860013388 16.34455963361563 4.000000000000009
vertex 267.43173860013394 14.84455963361563 4.000000000000007
vertex 265.93173860013394 16.34455963361563 4.000000000000011
endloop
endfacet
facet normal 1.1323821117487836e-17 -1.9039919681436534e-17 1.0
outer loop
vertex 265.93173860013394 16.34455963361563 4.000000000000011
vertex 267.43173860013394 14.84455963361563 4.000000000000007
vertex 265.93173860013394 70.34455963361563 4.000000000000011
endloop
endfacet
facet normal 1.1323821117487836e-17 -1.9039919681436534e-17 1.0
outer loop
vertex 265.93173860013394 70.34455963361563 4.000000000000011
vertex 230.43173860013388 71.84455963361563 4.00000000000001
vertex 230.43173860013388 70.34455963361563 4.000000000000011
endloop
endfacet
facet normal 1.1323821117487836e-17 -1.9039919681436534e-17 1.0
outer loop
vertex 230.43173860013388 71.84455963361563 4.00000000000001
vertex 265.93173860013394 70.34455963361563 4.000000000000011
vertex 267.43173860013394 71.84455963361563 4.000000000000007
endloop
endfacet
facet normal 1.1323821117487836e-17 -1.9039919681436534e-17 1.0
outer loop
vertex 267.43173860013394 71.84455963361563 4.000000000000007
vertex 265.93173860013394 70.34455963361563 4.000000000000011
vertex 267.43173860013394 14.84455963361563 4.000000000000007
endloop
endfacet
facet normal 2.657009202801299e-44 9.788732574311946e-16 1.0
outer loop
vertex 230.43173860013388 65.34455963361563 5.000000000000015
vertex 220.4317386001339 71.84455963361563 5.000000000000009
vertex 220.4317386001339 65.34455963361563 5.000000000000015
endloop
endfacet
facet normal 2.657009202801299e-44 9.788732574311946e-16 1.0
outer loop
vertex 220.4317386001339 71.84455963361563 5.000000000000009
vertex 230.43173860013388 65.34455963361563 5.000000000000015
vertex 230.43173860013388 71.84455963361563 5.000000000000009
endloop
endfacet
facet normal 0.0 -9.399888275159675e-16 -1.0
outer loop
vertex 230.43173860013388 70.34455963361563 4.000000000000011
vertex 220.4317386001339 65.34455963361563 4.000000000000016
vertex 220.4317386001339 70.34455963361563 4.000000000000011
endloop
endfacet
facet normal 0.0 -9.399888275159675e-16 -1.0
outer loop
vertex 220.4317386001339 65.34455963361563 4.000000000000016
vertex 230.43173860013388 70.34455963361563 4.000000000000011
vertex 230.43173860013388 65.34455963361563 4.000000000000016
endloop
endfacet
facet normal -1.0 0.0 0.0
outer loop
vertex 220.4317386001339 71.84455963361563 5.000000000000009
vertex 220.4317386001339 65.34455963361563 4.000000000000016
vertex 220.4317386001339 65.34455963361563 5.000000000000015
endloop
endfacet
facet normal -1.0 0.0 0.0
outer loop
vertex 220.4317386001339 65.34455963361563 4.000000000000016
vertex 220.4317386001339 71.84455963361563 5.000000000000009
vertex 220.4317386001339 70.34455963361563 4.000000000000011
endloop
endfacet
facet normal -1.0 0.0 0.0
outer loop
vertex 220.4317386001339 70.34455963361563 4.000000000000011
vertex 220.4317386001339 71.84455963361563 5.000000000000009
vertex 220.4317386001339 71.84455963361563 4.00000000000001
endloop
endfacet
endsolid Pantalla
